<?xml version="1.0" encoding="UTF-8"?>
<svg width="514px" height="292px" viewBox="0 0 514 292" version="1.1" xmlns="http://www.w3.org/2000/svg" xmlns:xlink="http://www.w3.org/1999/xlink">
    <title>Group 6</title>
    <defs>
        <linearGradient x1="-19.0445008%" y1="49.3264435%" x2="122.150482%" y2="50.7374396%" id="linearGradient-1">
            <stop stop-color="#2FE920" offset="0%"></stop>
            <stop stop-color="#095740" offset="100%"></stop>
        </linearGradient>
        <linearGradient x1="-19.0445008%" y1="48.9699268%" x2="122.150482%" y2="51.1277699%" id="linearGradient-2">
            <stop stop-color="#2FE920" offset="0%"></stop>
            <stop stop-color="#095740" offset="100%"></stop>
        </linearGradient>
        <linearGradient x1="-19.0445008%" y1="48.8356824%" x2="122.150482%" y2="51.2747466%" id="linearGradient-3">
            <stop stop-color="#2FE920" offset="0%"></stop>
            <stop stop-color="#095740" offset="100%"></stop>
        </linearGradient>
        <linearGradient x1="-72.4326725%" y1="41.4634416%" x2="142.613461%" y2="55.4775967%" id="linearGradient-4">
            <stop stop-color="#E95420" offset="0%"></stop>
            <stop stop-color="#8B3583" offset="100%"></stop>
        </linearGradient>
        <polygon id="path-5" points="192.56778 0 347.600018 30.8803296 185.840881 68.4737743"></polygon>
        <filter x="-5.0%" y="-11.1%" width="106.8%" height="121.3%" filterUnits="objectBoundingBox" id="filter-6">
            <feMorphology radius="3.5" operator="erode" in="SourceAlpha" result="shadowSpreadOuter1"></feMorphology>
            <feOffset dx="0" dy="0" in="shadowSpreadOuter1" result="shadowOffsetOuter1"></feOffset>
            <feGaussianBlur stdDeviation="6.5" in="shadowOffsetOuter1" result="shadowBlurOuter1"></feGaussianBlur>
            <feColorMatrix values="0 0 0 0 0   0 0 0 0 0   0 0 0 0 0  0 0 0 0.389231862 0" type="matrix" in="shadowBlurOuter1"></feColorMatrix>
        </filter>
        <linearGradient x1="-72.4326725%" y1="42.6110583%" x2="142.613461%" y2="54.7412131%" id="linearGradient-7">
            <stop stop-color="#E95420" offset="0%"></stop>
            <stop stop-color="#8B3583" offset="100%"></stop>
        </linearGradient>
        <polygon id="path-8" points="0 30.8803296 173.86778 0 167.140881 68.4737743"></polygon>
        <filter x="-1.7%" y="-10.9%" width="106.4%" height="121.8%" filterUnits="objectBoundingBox" id="filter-9">
            <feMorphology radius="3.5" operator="erode" in="SourceAlpha" result="shadowSpreadOuter1"></feMorphology>
            <feOffset dx="0" dy="0" in="shadowSpreadOuter1" result="shadowOffsetOuter1"></feOffset>
            <feGaussianBlur stdDeviation="6.5" in="shadowOffsetOuter1" result="shadowBlurOuter1"></feGaussianBlur>
            <feColorMatrix values="0 0 0 0 0   0 0 0 0 0   0 0 0 0 0  0 0 0 0.389231862 0" type="matrix" in="shadowBlurOuter1"></feColorMatrix>
        </filter>
        <linearGradient x1="-72.4326725%" y1="46.8170728%" x2="142.613461%" y2="52.0423677%" id="linearGradient-10">
            <stop stop-color="#E95420" offset="0%"></stop>
            <stop stop-color="#8B3583" offset="100%"></stop>
        </linearGradient>
        <polygon id="path-11" points="1.84741111e-13 30.8803296 1.84741111e-13 35.2067293 167.140881 74.0829483 167.140881 68.4737743"></polygon>
        <filter x="-9.6%" y="-37.0%" width="111.4%" height="144.0%" filterUnits="objectBoundingBox" id="filter-12">
            <feMorphology radius="3.5" operator="erode" in="SourceAlpha" result="shadowSpreadOuter1"></feMorphology>
            <feOffset dx="0" dy="0" in="shadowSpreadOuter1" result="shadowOffsetOuter1"></feOffset>
            <feGaussianBlur stdDeviation="6.5" in="shadowOffsetOuter1" result="shadowBlurOuter1"></feGaussianBlur>
            <feColorMatrix values="0 0 0 0 0   0 0 0 0 0   0 0 0 0 0  0 0 0 0.389231862 0" type="matrix" in="shadowBlurOuter1"></feColorMatrix>
        </filter>
        <linearGradient x1="-72.4326725%" y1="46.4022575%" x2="142.613461%" y2="52.3085395%" id="linearGradient-13">
            <stop stop-color="#E95420" offset="0%"></stop>
            <stop stop-color="#8B3583" offset="100%"></stop>
        </linearGradient>
        <polygon id="path-14" points="186.400009 29.5803295 186.400009 33.9067292 348.34089 74.0829483 348.34089 68.4737743"></polygon>
        <filter x="-9.9%" y="-36.0%" width="111.7%" height="142.7%" filterUnits="objectBoundingBox" id="filter-15">
            <feMorphology radius="3.5" operator="erode" in="SourceAlpha" result="shadowSpreadOuter1"></feMorphology>
            <feOffset dx="0" dy="0" in="shadowSpreadOuter1" result="shadowOffsetOuter1"></feOffset>
            <feGaussianBlur stdDeviation="6.5" in="shadowOffsetOuter1" result="shadowBlurOuter1"></feGaussianBlur>
            <feColorMatrix values="0 0 0 0 0   0 0 0 0 0   0 0 0 0 0  0 0 0 0.389231862 0" type="matrix" in="shadowBlurOuter1"></feColorMatrix>
        </filter>
        <linearGradient x1="-19.0445008%" y1="48.8874203%" x2="122.150482%" y2="51.2181017%" id="linearGradient-16">
            <stop stop-color="#2FE920" offset="0%"></stop>
            <stop stop-color="#095740" offset="100%"></stop>
        </linearGradient>
    </defs>
    <g id="Page-1" stroke="none" stroke-width="1" fill="none" fill-rule="evenodd">
        <g id="Developments" transform="translate(-227.000000, -440.000000)">
            <g id="Group-6" transform="translate(227.000000, 440.000000)">
                <g id="Group-8" transform="translate(88.000000, 217.000000)">
                    <polygon id="Rectangle" fill="url(#linearGradient-1)" points="0 30.8803296 173.86778 1.52411425e-13 327.600018 30.8803296 167.140881 68.4737743"></polygon>
                    <polygon id="Rectangle" fill="url(#linearGradient-2)" points="3.69482243e-14 30.8803296 3.69482243e-14 35.2067293 167.140881 74.0829483 167.140881 68.4737743"></polygon>
                    <polygon id="Rectangle" fill="url(#linearGradient-3)" transform="translate(247.370449, 51.831639) scale(-1, 1) translate(-247.370449, -51.831639) " points="166.400009 29.5803295 166.400009 33.9067292 328.34089 74.0829483 328.34089 68.4737743"></polygon>
                    <g id="Group-7" transform="translate(105.300006, 18.200001)">
                        <polygon id="Path-6" fill="#353535" points="0.155144041 13.8583342 68.0751366 0 121.86297 10.8959917 55.7500767 24.726191"></polygon>
                        <polygon id="Path-6" fill="#353535" points="0.155144041 15.1583343 68.0751366 1.30000007 121.86297 12.1959918 55.7500767 26.0261911"></polygon>
                        <polyline id="Line-2" stroke="#FFFFFF" stroke-width="1.30000007" stroke-linecap="square" points="13.0000007 20.8000011 13.0000007 19.2200559 13.0000007 16.3899735 20.4100011 15.6000009"></polyline>
                        <polyline id="Line-2" stroke="#FFFFFF" stroke-width="1.30000007" stroke-linecap="square" points="20.8000011 22.1000012 20.8000011 20.520056 20.8000011 17.6899735 28.2100016 16.9000009"></polyline>
                        <polyline id="Line-2" stroke="#FFFFFF" stroke-width="1.30000007" stroke-linecap="square" points="28.6000016 23.4000013 28.6000016 21.8200561 28.6000016 18.9899736 36.010002 18.200001"></polyline>
                        <polyline id="Line-2" stroke="#FFFFFF" stroke-width="1.30000007" stroke-linecap="square" points="36.400002 24.7000014 36.400002 23.1200562 36.400002 20.2899737 43.8100024 19.5000011"></polyline>
                        <polyline id="Line-2" stroke="#FFFFFF" stroke-width="1.30000007" stroke-linecap="square" points="42.9000024 26.0000014 42.9000024 24.4200562 42.9000024 21.5899737 50.3100028 20.8000011"></polyline>
                        <polyline id="Line-2" stroke="#FFFFFF" stroke-width="1.30000007" stroke-linecap="square" transform="translate(62.205003, 23.400001) scale(-1, 1) translate(-62.205003, -23.400001) " points="58.5000032 26.0000014 58.5000032 24.4200562 58.5000032 21.5899737 65.9100036 20.8000011"></polyline>
                        <polyline id="Line-2" stroke="#FFFFFF" stroke-width="1.30000007" stroke-linecap="square" transform="translate(68.705004, 22.100001) scale(-1, 1) translate(-68.705004, -22.100001) " points="65.0000036 24.7000014 65.0000036 23.1200562 65.0000036 20.2899737 72.410004 19.5000011"></polyline>
                        <polyline id="Line-2" stroke="#FFFFFF" stroke-width="1.30000007" stroke-linecap="square" transform="translate(75.205004, 20.800001) scale(-1, 1) translate(-75.205004, -20.800001) " points="71.5000039 23.4000013 71.5000039 21.8200561 71.5000039 18.9899736 78.9100043 18.200001"></polyline>
                        <polyline id="Line-2" stroke="#FFFFFF" stroke-width="1.30000007" stroke-linecap="square" transform="translate(80.470004, 19.500001) scale(-1, 1) translate(-80.470004, -19.500001) " points="78.0000043 22.1000012 78.0000043 20.520056 78.0000043 17.6899735 82.9400046 16.9000009"></polyline>
                        <polyline id="Line-2" stroke="#FFFFFF" stroke-width="1.30000007" stroke-linecap="square" transform="translate(85.605005, 18.200001) scale(-1, 1) translate(-85.605005, -18.200001) " points="81.9000045 20.8000011 81.9000045 19.2200559 81.9000045 16.3899735 89.3100049 15.6000009"></polyline>
                        <polyline id="Line-2" stroke="#FFFFFF" stroke-width="1.30000007" stroke-linecap="square" transform="translate(90.805005, 16.900001) scale(-1, 1) translate(-90.805005, -16.900001) " points="87.1000048 19.5000011 87.1000048 17.9200559 87.1000048 15.0899734 94.5100052 14.3000008"></polyline>
                        <polyline id="Line-2" stroke="#FFFFFF" stroke-width="1.30000007" stroke-linecap="square" transform="translate(97.305005, 15.600001) scale(-1, 1) translate(-97.305005, -15.600001) " points="93.6000051 18.200001 93.6000051 16.6200558 93.6000051 13.7899733 101.010006 13.0000007"></polyline>
                        <polyline id="Line-2" stroke="#FFFFFF" stroke-width="1.30000007" stroke-linecap="square" transform="translate(110.305006, 13.000001) scale(-1, 1) translate(-110.305006, -13.000001) " points="106.600006 15.6000009 106.600006 14.0200557 106.600006 11.1899732 114.010006 10.4000006"></polyline>
                        <polyline id="Line-2" stroke="#FFFFFF" stroke-width="1.30000007" stroke-linecap="square" transform="translate(103.805006, 14.300001) scale(-1, 1) translate(-103.805006, -14.300001) " points="100.100006 16.9000009 100.100006 15.3200557 100.100006 12.4899732 107.510006 11.7000006"></polyline>
                        <polyline id="Line-2" stroke="#FFFFFF" stroke-width="1.30000007" stroke-linecap="square" points="6.50000036 19.5000011 6.50000036 17.9200559 6.50000036 15.0899734 11.4400006 14.3000008"></polyline>
                    </g>
                </g>
                <g id="Group-8" transform="translate(78.000000, 161.000000)">
                    <g id="Rectangle">
                        <use fill="black" fill-opacity="1" filter="url(#filter-6)" xlink:href="#path-5"></use>
                        <use fill="url(#linearGradient-4)" fill-rule="evenodd" xlink:href="#path-5"></use>
                    </g>
                    <g id="Rectangle">
                        <use fill="black" fill-opacity="1" filter="url(#filter-9)" xlink:href="#path-8"></use>
                        <use fill="url(#linearGradient-7)" fill-rule="evenodd" xlink:href="#path-8"></use>
                    </g>
                    <g id="Rectangle">
                        <use fill="black" fill-opacity="1" filter="url(#filter-12)" xlink:href="#path-11"></use>
                        <use fill="url(#linearGradient-10)" fill-rule="evenodd" xlink:href="#path-11"></use>
                    </g>
                    <g id="Rectangle" transform="translate(267.370449, 51.831639) scale(-1, 1) translate(-267.370449, -51.831639) ">
                        <use fill="black" fill-opacity="1" filter="url(#filter-15)" xlink:href="#path-14"></use>
                        <use fill="url(#linearGradient-13)" fill-rule="evenodd" xlink:href="#path-14"></use>
                    </g>
                </g>
                <text id="Apps" font-family="Ubuntu-Light, Ubuntu" font-size="15" font-weight="300" line-spacing="23" fill="#000000">
                    <tspan x="248" y="14">Apps</tspan>
                </text>
                <text id="Core" font-family="Ubuntu-Light, Ubuntu" font-size="15" font-weight="300" line-spacing="23" fill="#000000">
                    <tspan x="448" y="197">Core</tspan>
                </text>
                <text id="Halium" font-family="Ubuntu-Light, Ubuntu" font-size="15" font-weight="300" line-spacing="23" fill="#000000">
                    <tspan x="0" y="193">Halium</tspan>
                </text>
                <text id="Lomri" font-family="Ubuntu-Light, Ubuntu" font-size="15" font-weight="300" line-spacing="23" fill="#000000">
                    <tspan x="448" y="139">Lomri</tspan>
                </text>
                <text id="Hardware" font-family="Ubuntu-Light, Ubuntu" font-size="15" font-weight="300" line-spacing="23" fill="#000000">
                    <tspan x="448" y="255">Hardware</tspan>
                </text>
                <g id="Group-8" transform="translate(88.000000, 106.000000)">
                    <polygon id="Rectangle" fill="url(#linearGradient-1)" points="0 30.8803296 173.86778 1.52411425e-13 327.600018 30.8803296 167.140881 68.4737743"></polygon>
                    <polygon id="Rectangle" fill="url(#linearGradient-2)" points="3.69482243e-14 30.8803296 3.69482243e-14 35.2067293 167.140881 74.0829483 167.140881 68.4737743"></polygon>
                    <polygon id="Rectangle" fill="url(#linearGradient-16)" transform="translate(247.370449, 52.331639) scale(-1, 1) translate(-247.370449, -52.331639) " points="166.400009 30.5803295 166.400009 33.9067292 328.34089 74.0829483 328.34089 68.4737743"></polygon>
                </g>
                <g id="Group-8" transform="translate(88.000000, 46.000000)">
                    <polygon id="Rectangle" fill="url(#linearGradient-1)" points="0 30.8803296 173.86778 1.52411425e-13 327.600018 30.8803296 167.140881 68.4737743"></polygon>
                    <polygon id="Rectangle" fill="url(#linearGradient-2)" points="3.69482243e-14 30.8803296 3.69482243e-14 35.2067293 167.140881 74.0829483 167.140881 68.4737743"></polygon>
                    <polygon id="Rectangle" fill="url(#linearGradient-16)" transform="translate(247.370449, 52.331639) scale(-1, 1) translate(-247.370449, -52.331639) " points="166.400009 30.5803295 166.400009 33.9067292 328.34089 74.0829483 328.34089 68.4737743"></polygon>
                </g>
            </g>
        </g>
    </g>
</svg>