<?xml version="1.0" encoding="UTF-8"?>
<svg width="62px" height="44px" viewBox="0 0 62 44" version="1.1" xmlns="http://www.w3.org/2000/svg" xmlns:xlink="http://www.w3.org/1999/xlink">
    <!-- Generator: Sketch 53.2 (72643) - https://sketchapp.com -->
    <title>Group 18</title>
    <desc>Created with Sketch.</desc>
    <defs>
        <radialGradient cx="45.1609051%" cy="-14.6403804%" fx="45.1609051%" fy="-14.6403804%" r="220.579548%" gradientTransform="translate(0.451609,-0.146404),scale(1.000000,0.555556),rotate(90.000000),translate(-0.451609,0.146404)" id="radialGradient-1">
            <stop stop-color="#FAFAFA" offset="0%"></stop>
            <stop stop-color="#E6E6E6" offset="100%"></stop>
        </radialGradient>
        <linearGradient x1="50%" y1="-4.27440672%" x2="50%" y2="104.274405%" id="linearGradient-2">
            <stop stop-color="#FFFFFF" offset="0%"></stop>
            <stop stop-color="#FFFFFF" stop-opacity="0" offset="100%"></stop>
        </linearGradient>
        <linearGradient x1="50%" y1="-2.93040293%" x2="50%" y2="102.930403%" id="linearGradient-3">
            <stop stop-color="#FFFFFF" offset="0%"></stop>
            <stop stop-color="#FFFFFF" stop-opacity="0" offset="100%"></stop>
        </linearGradient>
    </defs>
    <g id="Page-1" stroke="none" stroke-width="1" fill="none" fill-rule="evenodd">
        <g id="Ports" transform="translate(-779.000000, -2278.000000)">
            <g id="Group-12" transform="translate(449.000000, 1948.000000)">
                <g id="Group-10" transform="translate(319.000000, 310.000000)">
                    <g id="Group-18" transform="translate(11.000000, 20.000000)">
                        <g id="logo3" transform="translate(19.000000, 0.000000)">
                            <rect id="rect5505" fill="#000000" fill-rule="nonzero" x="0" y="0" width="43" height="44" rx="2.2322156"></rect>
                            <path d="M17.7464589,2.00006028 C17.1346452,1.99566667 16.5465874,2.2316276 16.1139581,2.65510876 C15.6813289,3.07858992 15.4402707,3.65421311 15.4447592,4.2530898 L15.4447592,8.65516308 L14.1345609,8.65516308 C13.2275464,8.65085738 12.4037998,9.1720918 12.035422,9.98341555 C11.6670442,10.7947393 11.823786,11.7425317 12.4348442,12.3986583 L18.1713881,18.7764649 C18.099864,18.899337 17.968868,19.0493596 17.9235127,19.1577469 C17.701532,19.6882206 17.6402266,20.0856123 17.6402266,20.5095646 L17.6402266,20.6482125 L17.5339943,20.5442266 C17.2187785,20.2356771 16.8548657,19.9621702 16.2946176,19.7470007 C16.0144929,19.639421 15.6903184,19.550673 15.1968839,19.5736908 C14.7034493,19.5967063 14.0024873,19.8069543 13.5325779,20.2669306 L11.7974504,21.9653683 C11.3275479,22.4253346 11.1127535,23.1114812 11.0892351,23.5944819 C11.0657224,24.0774826 11.1563739,24.394799 11.266289,24.6690037 C11.4861088,25.2174141 11.765515,25.5736218 12.0807365,25.8821734 L12.1869688,25.9861594 L12.0453258,25.9861594 C11.6122176,25.9861594 11.2062402,26.0461662 10.6643059,26.2634553 C10.3933394,26.3720999 10.0543513,26.5019165 9.7082153,26.8527092 C9.36207932,27.2035019 9,27.8673772 9,28.5511469 L9,30.9774863 C9,31.6612593 9.36208045,32.3251324 9.7082153,32.675924 C10.0543501,33.0267155 10.3933394,33.1565344 10.6643059,33.2651779 C11.2062391,33.4824647 11.6122153,33.5424738 12.0453258,33.5424738 L12.1869688,33.5424738 L12.0807365,33.6464598 C11.7655241,33.9550081 11.4861076,34.3112258 11.266289,34.8596295 C11.1563853,35.1338308 11.065719,35.4511483 11.0892351,35.9341513 C11.1127479,36.4171542 11.3275399,37.1032953 11.7974504,37.5632649 L13.5325779,39.2617026 C14.0024827,39.7216778 14.703447,39.9319213 15.1968839,39.9549424 C15.6903207,39.9779691 16.0144895,39.8892122 16.2946176,39.7816325 C16.8548725,39.5664619 17.2187762,39.2929616 17.5339943,38.9844066 L17.6402266,38.8804207 L17.6402266,39.0190686 C17.6402266,39.4430209 17.7015297,39.8404137 17.9235127,40.3708863 C18.0345042,40.6361221 18.1671263,40.9679433 18.5254958,41.3067601 C18.8838652,41.645577 19.5620771,42 20.2606232,42 L22.7393768,42 C23.4379218,42 24.1161348,41.6455781 24.4745042,41.3067601 C24.8328737,40.9679422 24.965498,40.6361232 25.0764873,40.3708863 C25.2984657,39.8404137 25.3597734,39.4430186 25.3597734,39.0190686 L25.3597734,38.8804207 L25.4660057,38.9844066 C25.7812193,39.2929538 26.145132,39.5664619 26.7053824,39.7816325 C26.9855071,39.8892122 27.3096793,39.9779613 27.8031161,39.9549424 C28.296553,39.9319269 28.9975161,39.7216767 29.4674221,39.2617026 L31.2025496,37.5632649 C31.6724612,37.1032964 31.8872465,36.4171542 31.9107649,35.9341513 C31.934289,35.4511483 31.8436147,35.1338342 31.733711,34.8596295 C31.5138924,34.3112213 31.2344839,33.9550125 30.9192635,33.6464598 L30.8130312,33.5424738 L30.9546742,33.5424738 C31.3877847,33.5424738 31.7937609,33.482467 32.3356941,33.2651779 C32.6066606,33.1565333 32.9456499,33.0267167 33.2917847,32.675924 C33.6379195,32.3251313 34,31.6612571 34,30.9774863 L34,28.5511469 C34,27.8673794 33.6379207,27.203503 33.2917847,26.8527092 C32.9456487,26.5019154 32.6066618,26.3720988 32.3356941,26.2634553 C31.7937598,26.0461685 31.3877824,25.9861594 30.9546742,25.9861594 L30.8130312,25.9861594 L30.9192635,25.8821734 C31.2344782,25.573624 31.5138924,25.2174074 31.733711,24.6690037 C31.8436147,24.3948024 31.934281,24.0774837 31.9107649,23.5944819 C31.8872521,23.1114801 31.6724612,22.425339 31.2025496,21.9653683 L29.4674221,20.2669306 C28.9975207,19.8069588 28.2965552,19.5967119 27.8031161,19.5736908 C27.3096771,19.5506641 26.9855105,19.6394099 26.7053824,19.7470007 C26.1451263,19.9621724 25.7812215,20.2356738 25.4660057,20.5442266 L25.3597734,20.6482125 L25.3597734,20.5095646 C25.3597734,20.0856146 25.2984703,19.6882218 25.0764873,19.1577469 C24.9732351,18.9110089 24.8179864,18.602952 24.509915,18.291197 L29.8569405,12.3986583 C30.4679987,11.7425317 30.6247405,10.7947393 30.2563627,9.98341555 C29.8879849,9.1720918 29.0642383,8.65085738 28.1572238,8.65516308 L26.8470255,8.65516308 L26.8470255,4.2530898 C26.851514,3.65421311 26.6104558,3.07858992 26.1778266,2.65510876 C25.7451973,2.2316276 25.1571395,1.99566667 24.5453258,2.00006028 L17.7464589,2.00006028 Z M21.5,28.9324288 C21.9839626,28.9324288 22.3498584,29.2905887 22.3498584,29.7643166 C22.3498584,30.2380445 21.9839626,30.5962044 21.5,30.5962044 C21.0160408,30.5962044 20.6501416,30.2380423 20.6501416,29.7643166 C20.6501416,29.2905909 21.0160408,28.9324288 21.5,28.9324288 Z" id="path4294-1" fill="#000000" fill-rule="nonzero" opacity="0.05"></path>
                            <path d="M18.2413793,3.00127699 C17.6905026,3.05300057 17.2706966,3.52461759 17.2758621,4.08595508 L17.2758621,9.71928346 L14.8275862,9.71928346 C14.4136957,9.72396459 14.0400777,9.97187782 13.8699135,10.3547445 C13.6997494,10.7376112 13.763953,11.1858757 14.0344828,11.5037539 L20.4137931,18.8165836 C20.2385501,18.8855551 20.0365948,18.923064 19.9310345,19.0265213 C19.7443741,19.2094593 19.6518941,19.3886431 19.5862069,19.5513655 C19.4548326,19.8768115 19.4137931,20.1859327 19.4137931,20.4960851 L19.4137931,22.3505348 C19.1372833,22.4511145 18.8809611,22.5714139 18.6206897,22.7004309 L17.3103448,21.3708255 C17.0900403,21.1472839 16.8453153,20.9765961 16.5172414,20.8459813 C16.3532039,20.7806711 16.1534643,20.7285886 15.8965517,20.7410124 C15.6396392,20.7534408 15.305291,20.8511094 15.0689655,21.0909086 L13.3793103,22.8053998 C13.142987,23.0451968 13.0467277,23.3844617 13.0344828,23.6451506 C13.0222345,23.9058394 13.0735669,24.1085138 13.137931,24.2749636 C13.2666538,24.6078644 13.4348646,24.856182 13.6551724,25.0797248 L14.9655172,26.4093302 C14.8383691,26.6734273 14.7198146,26.9335172 14.6206897,27.2140914 L12.7931034,27.2140914 C12.487445,27.2140914 12.1828006,27.2557318 11.862069,27.3890394 C11.7017026,27.4556933 11.5251167,27.5495304 11.3448276,27.7389356 C11.1645385,27.9283408 11,28.258495 11,28.613676 L11,31.0629491 C11,31.4181312 11.1645396,31.7482854 11.3448276,31.9376895 C11.5251156,32.1270936 11.7017037,32.220933 11.862069,32.2875857 C12.1828006,32.4208911 12.4874439,32.4625337 12.7931034,32.4625337 L14.6206897,32.4625337 C14.7198124,32.7431079 14.8383691,33.0031978 14.9655172,33.2672949 L13.6551724,34.5969003 C13.4348701,34.820442 13.2666538,35.0687641 13.137931,35.4016615 C13.0735669,35.5681102 13.0222389,35.7707846 13.0344828,36.0314746 C13.046731,36.2921645 13.1429848,36.6314272 13.3793103,36.8712253 L15.0689655,38.5857165 C15.3052888,38.825518 15.6396381,38.9231877 15.8965517,38.9356127 C16.1534654,38.948041 16.3532028,38.895954 16.5172414,38.8306438 C16.8453186,38.700029 17.0900392,38.5293457 17.3103448,38.3057996 L18.6206897,36.9761942 C18.8809611,37.1052113 19.1372844,37.2255083 19.4137931,37.3260903 L19.4137931,39.18054 C19.4137931,39.4906913 19.4548303,39.7998136 19.5862069,40.1252596 C19.6518952,40.287982 19.7443741,40.4671658 19.9310345,40.6501038 C20.1176949,40.8330419 20.4430654,41 20.7931034,41 L23.2068966,41 C23.5569335,41 23.8823051,40.833043 24.0689655,40.6501038 C24.2556259,40.4671647 24.3481059,40.287982 24.4137931,40.1252596 C24.5451663,39.7998136 24.5862069,39.4906902 24.5862069,39.18054 L24.5862069,37.3260903 C24.8627156,37.2255106 25.1190389,37.1052113 25.3793103,36.9761942 L26.6896552,38.3057996 C26.9099586,38.5293401 27.1546836,38.700029 27.4827586,38.8306438 C27.6467961,38.895954 27.8465346,38.9480365 28.1034483,38.9356127 C28.3603619,38.9231844 28.6947101,38.8255157 28.9310345,38.5857165 L30.6206897,36.8712253 C30.8570174,36.6314283 30.9532723,36.2921645 30.9655172,36.0314746 C30.9777655,35.7707846 30.9264331,35.5681113 30.862069,35.4016615 C30.7333462,35.0687619 30.5651354,34.8204442 30.3448276,34.5969003 L29.0344828,33.2672949 C29.1616309,33.0031989 29.2801854,32.7431079 29.3793103,32.4625337 L31.2068966,32.4625337 C31.5125561,32.4625337 31.8171994,32.4208933 32.137931,32.2875857 C32.2982974,32.2209318 32.4748844,32.1270936 32.6551724,31.9376895 C32.8354604,31.7482854 33,31.4181301 33,31.0629491 L33,28.613676 C33,28.2584961 32.8354604,27.9283408 32.6551724,27.7389356 C32.4748844,27.5495304 32.2982974,27.4556921 32.137931,27.3890394 C31.8171983,27.255734 31.512555,27.2140914 31.2068966,27.2140914 L29.3793103,27.2140914 C29.2801876,26.9335172 29.1616309,26.6734262 29.0344828,26.4093302 L30.3448276,25.0797248 C30.565131,24.8561831 30.7333462,24.607861 30.862069,24.2749636 C30.9264331,24.108515 30.9777611,23.9058405 30.9655172,23.6451506 C30.953269,23.3844606 30.8570152,23.0451979 30.6206897,22.8053998 L28.9310345,21.0909086 C28.6947123,20.8511094 28.360363,20.7534374 28.1034483,20.7410124 C27.8465335,20.7285841 27.6467972,20.7806711 27.4827586,20.8459813 C27.1546814,20.9765972 26.9099597,21.1472805 26.6896552,21.3708255 L25.3793103,22.7004309 C25.1190389,22.5714139 24.8627167,22.4511168 24.5862069,22.3505348 L24.5862069,20.4960851 C24.5862069,20.1859338 24.5451697,19.8768115 24.4137931,19.5513655 C24.3481048,19.388642 24.255627,19.2094604 24.0689655,19.0265213 C23.882304,18.8435821 23.5569324,18.6766251 23.2068966,18.6766251 L23.0344828,18.6766251 L29.2758621,11.5037539 C29.5463918,11.1858757 29.6105954,10.7376112 29.4404313,10.3547445 C29.2702671,9.97187782 28.8966491,9.72396459 28.4827586,9.71928346 L26.0344828,9.71928346 L26.0344828,4.08595508 C26.0359298,3.79783295 25.9237717,3.5210869 25.7229872,3.31735114 C25.5222028,3.11361538 25.2494657,2.99980869 24.9655172,3.00127699 L18.3448276,3.00127699 C18.3103652,2.99957434 18.2758417,2.99957434 18.2413793,3.00127699 Z M22,27.8089148 C23.1057799,27.8089148 24,28.7162801 24,29.8383126 C24,30.960345 23.1057799,31.8677103 22,31.8677103 C20.8942234,31.8677103 20,30.9603439 20,29.8383126 C20,28.7162812 20.8942234,27.8089148 22,27.8089148 Z" id="path4294" fill="#000000" fill-rule="nonzero" opacity="0.05"></path>
                            <path d="M18.3194444,4 L18.3194444,10.7500004 L14.7777778,10.7500004 L21.6527778,18.6250003 L28.5277778,10.7500004 L24.9861111,10.7500004 L24.9861111,4 L18.3194444,4 Z M20.7847222,19.7500003 C20.59262,19.7500003 20.4722222,20.0817875 20.4722222,20.4882815 L20.4722222,23.0546877 C19.6988333,23.2329957 18.9705044,23.5523528 18.3194444,23.9687502 L16.5138889,22.1406252 C16.2300022,21.8531911 15.9205578,21.7218406 15.7847222,21.8593752 L14.0833333,23.5820315 C13.9474956,23.7195672 14.0772222,24.0328786 14.3611111,24.3203127 L16.1666667,26.1484377 C15.7554111,26.8076348 15.4399967,27.5450689 15.2638889,28.3281251 L12.7291667,28.3281251 C12.3276911,28.3281251 12,28.4500268 12,28.6445314 L12,31.1054689 C12,31.2999724 12.3276911,31.4218751 12.7291667,31.4218751 L15.2638889,31.4218751 C15.4399967,32.2049313 15.7554111,32.9423643 16.1666667,33.6015626 L14.3611111,35.4296876 C14.0772256,35.7171228 13.9474956,36.0304342 14.0833333,36.1679688 L15.7847222,37.890625 C15.9205578,38.0281608 16.2300022,37.8968125 16.5138889,37.609375 L18.3194444,35.7812501 C18.9705044,36.1976463 19.6988333,36.5170023 20.4722222,36.6953125 L20.4722222,39.2617188 C20.4722222,39.6682116 20.59262,40 20.7847222,40 L23.2152778,40 C23.4073811,40 23.5277778,39.6682105 23.5277778,39.2617188 L23.5277778,36.6953125 C24.3011667,36.5170023 25.0294956,36.1976463 25.6805556,35.7812501 L27.4861111,37.609375 C27.7699978,37.8968092 28.0794411,38.0281608 28.2152778,37.890625 L29.9166667,36.1679688 C30.0525044,36.0304353 29.9227778,35.7171228 29.6388889,35.4296876 L27.8333333,33.6015626 C28.2445878,32.9423643 28.5600033,32.2049313 28.7361111,31.4218751 L31.2708333,31.4218751 C31.67231,31.4218751 32,31.2999724 32,31.1054689 L32,28.6445314 C32,28.4500268 31.67231,28.3281251 31.2708333,28.3281251 L28.7361111,28.3281251 C28.5600033,27.5450689 28.2445878,26.8076348 27.8333333,26.1484377 L29.6388889,24.3203127 C29.9227744,24.0328786 30.0525044,23.7195661 29.9166667,23.5820315 L28.2152778,21.8593752 C28.0794411,21.7218384 27.7699978,21.8531877 27.4861111,22.1406252 L25.6805556,23.9687502 C25.0294956,23.5523528 24.3011667,23.2329957 23.5277778,23.0546877 L23.5277778,20.4882815 C23.5277778,20.0817875 23.4073811,19.7500003 23.2152778,19.7500003 L20.7847222,19.7500003 Z M22,26.7460939 C23.6984622,26.7460939 25.0902778,28.1553083 25.0902778,29.8750001 C25.0902778,31.594692 23.6984622,33.0039063 22,33.0039063 C20.30154,33.0039063 18.9097222,31.594692 18.9097222,29.8750001 C18.9097222,28.1553083 20.30154,26.7460939 22,26.7460939 Z" id="path2317" fill="url(#radialGradient-1)" fill-rule="nonzero"></path>
                            <rect id="rect6741" opacity="0.4" x="1" y="1" width="41" height="42"></rect>
                            <polygon id="path2777" stroke="url(#linearGradient-2)" stroke-width="0.99829447" points="27 11.6423608 21.5610183 18 16 11.6794675 18.800885 11.6794675 18.800885 5 24.3211515 5 24.3211515 11.6794675 27 11.642363"></polygon>
                            <path d="M20.525641,21 C20.512657,21.0599203 20.4908425,21.1115836 20.4908425,21.2087912 L20.4908425,23.7490842 C20.4902677,23.9991189 20.3170702,24.2156158 20.0732601,24.2710623 C19.3622932,24.4329551 18.6942103,24.724402 18.0897436,25.1062271 C17.8797971,25.238804 17.6063113,25.210016 17.4285714,25.03663 L15.6190476,23.2271062 C15.5596396,23.1676982 15.5260103,23.1532442 15.4798535,23.1227106 L14.1227106,24.4798535 C14.1532442,24.5260103 14.1676982,24.5596396 14.2271062,24.6190476 L16.03663,26.4285714 C16.210016,26.6063113 16.238804,26.8797971 16.1062271,27.0897436 C15.7244031,27.6942092 15.4329562,28.362292 15.2710623,29.0732601 C15.2156158,29.3170702 14.9991189,29.4902677 14.7490842,29.4908425 L12.2087912,29.4908425 C12.1115892,29.4908425 12.0599147,29.512657 12,29.525641 L12,31.474359 C12.0599203,31.487343 12.1115836,31.5091575 12.2087912,31.5091575 L14.7490842,31.5091575 C14.9991189,31.5097323 15.2156158,31.6829298 15.2710623,31.9267399 C15.4329562,32.637708 15.7244031,33.3057897 16.1062271,33.9102564 C16.238804,34.1202029 16.210016,34.3936887 16.03663,34.5714286 L14.2271062,36.3809524 C14.1676982,36.4403604 14.1532442,36.4739897 14.1227106,36.5201465 L15.4798535,37.8772894 C15.5260103,37.8467558 15.5596396,37.8323018 15.6190476,37.7728938 L17.4285714,35.96337 C17.6063113,35.789984 17.8797971,35.761196 18.0897436,35.8937729 C18.6942103,36.2755969 19.3622909,36.5670427 20.0732601,36.7289377 C20.3170702,36.7843842 20.4902677,37.0008811 20.4908425,37.2509158 L20.4908425,39.7912088 C20.4908425,39.8884108 20.512657,39.9400853 20.525641,40 L22.474359,40 C22.487343,39.9400908 22.5091575,39.8884153 22.5091575,39.7912088 L22.5091575,37.2509158 C22.5097323,37.0008811 22.6829298,36.7843842 22.9267399,36.7289377 C23.6377091,36.5670427 24.3057897,36.2755969 24.9102564,35.8937729 C25.1202029,35.761196 25.3936887,35.789984 25.5714286,35.96337 L27.3809524,37.7728938 C27.4403604,37.8323018 27.4739897,37.8467558 27.5201465,37.8772894 L28.8772894,36.5201465 C28.8467558,36.4739897 28.8323018,36.4403604 28.7728938,36.3809524 L26.96337,34.5714286 C26.789984,34.3936887 26.761196,34.1202029 26.8937729,33.9102564 C27.2755969,33.3057886 27.5670438,32.6377068 27.7289377,31.9267399 C27.7843842,31.6829298 28.0008811,31.5097323 28.2509158,31.5091575 L30.7912088,31.5091575 C30.8884108,31.5091575 30.9400853,31.487343 31,31.474359 L31,29.525641 C30.9400908,29.512657 30.8884175,29.4908425 30.7912088,29.4908425 L28.2509158,29.4908425 C28.0008811,29.4902677 27.7843842,29.3170702 27.7289377,29.0732601 C27.5670438,28.3622932 27.2755958,27.6942092 26.8937729,27.0897436 C26.761196,26.8797971 26.789984,26.6063113 26.96337,26.4285714 L28.7728938,24.6190476 C28.8323018,24.5596396 28.8467558,24.5260103 28.8772894,24.4798535 L27.5201465,23.1227106 C27.4739897,23.1532442 27.4403604,23.1676982 27.3809524,23.2271062 L25.5714286,25.03663 C25.3936887,25.210016 25.1202029,25.238804 24.9102564,25.1062271 C24.3057897,24.724402 23.6377068,24.4329551 22.9267399,24.2710623 C22.6829298,24.2156158 22.5097323,23.9991189 22.5091575,23.7490842 L22.5091575,21.2087912 C22.5091575,21.111578 22.487343,21.0599147 22.474359,21 L20.525641,21 L20.525641,21 Z M21.5,26.8809524 C23.4952968,26.8809524 25.1190476,28.5047044 25.1190476,30.5 C25.1190476,32.4952956 23.4952968,34.1190476 21.5,34.1190476 C19.5047055,34.1190476 17.8809524,32.4952956 17.8809524,30.5 C17.8809524,28.5047044 19.5047055,26.8809524 21.5,26.8809524 Z" id="path4243" stroke="url(#linearGradient-3)"></path>
                        </g>
                        <g id="Group-2" transform="translate(0.000000, 12.000000)">
                            <path d="M16.8214801,0 C18.574161,0 20.3268466,0.012242997 22.0795369,0.0367289912 C27.1816128,0.108007684 31.2815892,4.41872759 31.2815892,9.7117775 L31.2815892,10.276555 C31.2815892,15.5520718 27.2077546,19.8552944 22.1229532,19.9508922 C20.3816065,19.9836307 18.6442021,20 16.9107401,20 C15.2036921,20 13.4966469,19.9841258 11.7896042,19.9523774 C6.70407786,19.8577943 2.62915084,15.5542566 2.62915084,10.2780062 L2.62915084,9.70856241 C2.62915085,4.41382999 6.73163947,0.10239423 11.8353674,0.0334566991 C13.2802471,0.0139402913 14.7333546,0.0029623119 16.1946898,0.000522760923 L16.8214801,0 Z" id="Combined-Shape" stroke="#000000" fill="#FFFFFF" fill-rule="nonzero"></path>
                            <path d="M16.8214801,0 C18.574161,0 20.3268466,0.012242997 22.0795369,0.0367289912 C27.1816128,0.108007684 31.2815892,4.41872759 31.2815892,9.7117775 L31.2815892,10.276555 C31.2815892,15.5520718 27.2077546,19.8552944 22.1229532,19.9508922 C20.3816065,19.9836307 18.6442021,20 16.9107401,20 L16.1946898,0.000522760923 L16.8214801,0 Z" id="Combined-Shape-path" fill="#C4C4C4" fill-rule="nonzero"></path>
                            <path d="M12.0901574,3.89142432 C13.6798535,3.86857001 15.2828836,3.85714286 16.8992478,3.85714286 C18.5706585,3.85714286 20.2420751,3.86936159 21.9134973,3.89379904 C25.1670876,3.94136941 27.7804878,6.68032562 27.7804878,10.0426587 C27.7804878,13.4190717 25.1643026,16.1738825 21.8973416,16.2375377 C20.2490164,16.2696555 18.6053746,16.2857143 16.9664159,16.2857143 C15.3457,16.2857143 13.7249872,16.2700109 12.1042777,16.2386043 C8.83651401,16.1752809 6.2195122,13.4198946 6.2195122,10.0426587 C6.2195122,6.67847125 8.83476187,3.93822438 12.0901574,3.89142432 Z" id="Rectangle" fill="#000000" fill-rule="nonzero"></path>
                            <path d="M19.3348944,12.0341151 C19.0259279,13.3386257 18.0450789,14.1428571 16.9456816,14.1428571 C15.8892402,14.1428571 14.9891252,13.2678622 14.646252,12.0419889 L14.646252,12.0419889 L19.3348944,12.0341151 Z M12.3513304,8 C13.3715469,8 14.1985957,8.84149465 14.1985957,9.87953092 C14.1985957,10.9175671 13.3715469,11.7590618 12.3513304,11.7590618 C11.3311139,11.7590618 10.504065,10.9175671 10.504065,9.87953092 C10.504065,8.84149465 11.3311139,8 12.3513304,8 Z M21.2340355,8 C22.2542519,8 23.0813008,8.84149465 23.0813008,9.87953092 C23.0813008,10.9175671 22.2542519,11.7590618 21.2340355,11.7590618 C20.213819,11.7590618 19.3867701,10.9175671 19.3867701,9.87953092 C19.3867701,8.84149465 20.213819,8 21.2340355,8 Z" id="Face" fill="#FFFFFF" fill-rule="nonzero"></path>
                            <path d="M2.14595589,6.79705101 L2.85905673,6.83581838 C2.57166634,7.80644023 2.40454398,8.75545787 2.35768969,9.6828713 C2.31083539,10.6102848 2.38297049,11.541403 2.57409499,12.4762259 L1.86099415,12.4374586 C0.777948673,12.3785794 -0.054020081,11.4200856 0.00273992723,10.296603 L0.0821554943,8.72468607 C0.138915503,7.60120339 1.06291041,6.73817178 2.14595589,6.79705101 Z M33.9158822,8.69106039 L33.9178444,8.72468607 L33.9972601,10.296603 C34.0534524,11.4088508 33.2386018,12.359393 32.1714212,12.4354231 L32.1390058,12.4374586 L31.425905,12.4762259 C31.6170295,11.541403 31.6891646,10.6102848 31.6423103,9.6828713 C31.5971293,8.78857979 31.4401175,7.87419965 31.1712749,6.93973091 L31.1409432,6.83581838 L31.8540441,6.79705101 C32.9262591,6.73876056 33.8425887,7.58403495 33.9158822,8.69106039 Z" id="Combined-Shape" fill="#000000"></path>
                        </g>
                    </g>
                </g>
            </g>
        </g>
    </g>
</svg>