<?xml version="1.0" encoding="UTF-8"?>
<svg width="27px" height="27px" viewBox="0 0 27 27" version="1.1" xmlns="http://www.w3.org/2000/svg" xmlns:xlink="http://www.w3.org/1999/xlink">
    <!-- Generator: Sketch 53.2 (72643) - https://sketchapp.com -->
    <title>Group 15</title>
    <desc>Created with Sketch.</desc>
    <g id="Page-1" stroke="none" stroke-width="1" fill="none" fill-rule="evenodd">
        <g id="Ports" transform="translate(-905.000000, -1778.000000)">
            <g id="Group-15" transform="translate(905.000000, 1778.000000)">
                <rect id="Rectangle" fill="#000000" x="0" y="0" width="27" height="27" rx="4"></rect>
                <g id="Group-13" transform="translate(5.000000, 4.000000)" fill="#FFFFFF">
                    <path d="M10.1582609,1.75862167 L13.2854957,1.75862167 C13.7384348,1.75862167 14.0972522,1.81040083 14.399513,1.9540225 C14.7015652,2.09725458 14.9433739,2.35655417 15.0865391,2.68443458 C15.3724522,3.34001125 15.3417739,4.142135 15.3519304,5.23775667 L15.3523478,5.23971167 L15.3523478,13.5188958 L15.3519304,13.5214458 C15.3419826,14.6172375 15.3724522,15.4187875 15.0863304,16.0745625 C14.9433739,16.40245 14.7015652,16.6613458 14.3993043,16.8047833 C14.0972522,16.9484333 13.7384348,17.0002125 13.2854957,17.0002125 L3.98547478,17.0002125 C3.53257739,17.0002125 3.17410087,16.9484333 2.87185391,16.8047833 C2.56979478,16.6615583 2.32780522,16.4026625 2.18483478,16.074775 C1.94841043,15.5335375 1.92806957,14.8925667 1.92250435,14.0691292 L2.69318957,14.0691292 C2.70892522,14.9035458 2.74884174,15.4647583 2.86398609,15.7369 C2.9330713,15.8986833 3.00925913,15.9909792 3.18600348,16.0769 C3.36255304,16.1628917 3.64369391,16.2185667 4.04649739,16.2185667 L13.2249043,16.2185667 C13.6278957,16.2185667 13.9086609,16.1628917 14.0853565,16.0767583 C14.261913,15.9907667 14.3382957,15.8988958 14.4072348,15.7367583 C14.5448348,15.4131208 14.5747478,14.6809875 14.5846957,13.5657875 L14.5846957,5.18754292 C14.5747478,4.07570042 14.5444174,3.34528833 14.4072348,3.02209 C14.338087,2.86029958 14.2621217,2.7680675 14.0853565,2.68170042 C13.9088,2.59572292 13.627687,2.54042333 13.2249043,2.54042333 L9.83046957,2.54042333 C10.0047304,2.32040083 10.1218087,2.05192125 10.1582609,1.75881292 L10.1582609,1.75862167 Z M7.11276522,1.75862167 C7.14921739,2.05172292 7.26629565,2.32020958 7.44034783,2.54023208 L4.04669217,2.54023208 C3.64369391,2.54023208 3.36293565,2.59552458 3.1861913,2.68150208 C3.00964174,2.76747958 2.93326609,2.86010125 2.8643687,3.02209 C2.72715826,3.34509 2.69683478,4.07570042 2.68685913,5.18714625 L2.68685913,10.5517583 L1.91924174,10.5517583 L1.91924174,5.237955 C1.92922435,4.14174542 1.89870609,3.34001125 2.18483478,2.68443458 C2.328,2.35655417 2.56998957,2.09725458 2.87185391,1.95363292 C3.17410087,1.81059917 3.53296696,1.75862167 3.98585739,1.75862167 L7.11290435,1.75862167 L7.11276522,1.75862167 Z" id="Shape"></path>
                    <path d="M10.9366261,1.75862167 L10.9366261,4.10442333 L6.33283478,4.10442333 L6.33283478,1.75862167 L7.86810435,1.75862167 C7.86810435,2.19514625 8.2066087,2.54062167 8.63471304,2.54062167 C9.06302609,2.54062167 9.40236522,2.19514625 9.40236522,1.75862167 L10.9368348,1.75862167 L10.9366261,1.75862167 Z" id="Path" fill-rule="nonzero"></path>
                    <path d="M10.1705739,1.56283125 C10.1705739,2.42162167 9.47853913,3.126045 8.63533913,3.126045 C7.79227826,3.126045 7.10045217,2.42162167 7.10045217,1.56283125 C7.10045217,0.704034458 7.79227826,-1.17683641e-14 8.63568696,-1.17683641e-14 C9.47853913,-1.17683641e-14 10.1705739,0.704034458 10.1705739,1.56283125 Z M9.40292174,1.56283125 C9.40333913,1.12668917 9.0642087,0.781610417 8.63568696,0.781610417 C8.20716522,0.781610417 7.86810435,1.12668917 7.86810435,1.56283125 C7.86810435,1.99896625 8.20716522,2.34443458 8.63568696,2.34443458 C9.06441739,2.34443458 9.40333913,1.99896625 9.40333913,1.56283125 L9.40292174,1.56283125 Z" id="Shape" fill-rule="nonzero"></path>
                    <path d="M8.05996522,7.03447958 L13.4332522,7.03447958 L13.4332522,7.81610417 L8.05996522,7.81610417 L8.05996522,7.03447958 Z M8.05996522,9.379325 L13.4332522,9.379325 L13.4332522,10.1609 L8.05996522,10.1609 L8.05996522,9.379325 Z M9.5952,11.7241208 L13.4332522,11.7241208 L13.4332522,12.5057667 L9.5952,12.5057667 L9.5952,11.7241208 Z" id="Shape"></path>
                    <path d="M4.22189217,9.7701125 C4.22189217,9.7701125 6.26950957,10.7725458 8.05996522,12.2173333 L8.05961739,12.2173333 L8.05766957,12.2173333 L8.05711304,12.2173333 C6.16875826,13.7078792 4.22189217,14.6551333 4.22189217,14.6551333 L4.22189217,9.7701125 Z" id="Path" fill-rule="nonzero"></path>
                    <polygon id="Path" points="-8.57980353e-13 11.3333333 4.22189217 11.3333333 4.22189217 13.2873417 -8.57980353e-13 13.2873417"></polygon>
                </g>
            </g>
        </g>
    </g>
</svg>