<?xml version="1.0" encoding="UTF-8"?>
<svg width="58px" height="49px" viewBox="0 0 58 49" version="1.1" xmlns="http://www.w3.org/2000/svg" xmlns:xlink="http://www.w3.org/1999/xlink">
    <!-- Generator: Sketch 53.2 (72643) - https://sketchapp.com -->
    <title>Group 14</title>
    <desc>Created with Sketch.</desc>
    <g id="Page-1" stroke="none" stroke-width="1" fill="none" fill-rule="evenodd">
        <g id="Ports" transform="translate(-525.000000, -2275.000000)">
            <g id="Group-12" transform="translate(449.000000, 1948.000000)">
                <g id="Group-10" transform="translate(52.000000, 310.000000)">
                    <g id="Group-14" transform="translate(24.000000, 9.000000)">
                        <g id="Group-11" transform="translate(1.000000, 0.000000)">
                            <path d="M56.0958904,32.5002603 C56.0958904,45.5310869 45.5317241,56.0958904 32.5,56.0958904 C19.4682759,56.0958904 8.90410959,45.5310869 8.90410959,32.5002603 C8.90410959,19.4683925 19.4682759,8.90410959 32.5,8.90410959 C45.5317241,8.90410959 56.0958904,19.4683925 56.0958904,32.5002603" id="Fill-3" fill="#030303" transform="translate(32.500000, 32.500000) rotate(-480.000000) translate(-32.500000, -32.500000) "></path>
                            <path d="M43.3302008,23.6410408 C44.8819784,24.5049374 46.8659374,23.9934197 47.7614,22.497618 C48.6573988,21.002333 48.1265557,19.0906002 46.574778,18.2272204 C45.0224642,17.3643573 43.0390414,17.8769083 42.1425064,19.3721933 C41.2470438,20.8669616 41.7789593,22.7781777 43.3302008,23.6410408 Z M36.6893002,43.8594229 C35.2629945,43.8594229 33.910149,43.5535456 32.6972529,43.0094768 L30.4425103,46.9032114 C32.3251266,47.8022425 34.4463541,48.3096267 36.6893002,48.3096267 C37.9944235,48.3096267 39.2561141,48.1349873 40.455605,47.8151596 C40.6668699,46.5590995 41.4406139,45.4022429 42.6744219,44.7150524 C43.9071575,44.0299288 45.3313183,43.9622431 46.5651263,44.4112419 C48.9646443,42.13783 50.5260737,39.0459899 50.7534247,35.6017708 L46.1286554,35.5361519 C45.7034447,40.2023298 41.6411546,43.8594229 36.6893002,43.8594229 Z M36.6893002,25.5925583 C41.6411546,25.5925583 45.7034447,29.2506847 46.1297278,33.9163459 L50.7534247,33.850727 C50.5260737,30.406508 48.9646443,27.3146678 46.5651263,25.0407392 C45.3313183,25.4897381 43.9060851,25.421019 42.6744219,24.7369287 C41.4406139,24.0507717 40.6668699,22.8933983 40.455605,21.6368216 C39.2561141,21.3180272 37.9944235,21.1433879 36.6893002,21.1433879 C34.4463541,21.1433879 32.3251266,21.6512887 30.4425103,22.5492864 L32.6972529,26.4425043 C33.910149,25.8984355 35.2629945,25.5925583 36.6893002,25.5925583 Z M27.2113382,34.7265073 C27.2113382,31.6367338 28.8044037,28.9065728 31.241456,27.253699 L28.8692845,23.4250667 C26.0300783,25.2536132 23.9179663,28.0478431 23.0401985,31.3205229 C24.0643503,32.1260341 24.7201291,33.3521264 24.7201291,34.7265073 C24.7201291,36.0998547 24.0643503,37.3259471 23.0401985,38.1314583 C23.9168938,41.4051714 26.0290059,44.1994013 28.8692845,46.0279478 L31.241456,42.1982821 C28.8044037,40.5464417 27.2113382,37.8167974 27.2113382,34.7265073 Z M43.3312732,45.809907 C41.7789593,46.6738035 41.2470438,48.5850195 42.1435788,50.0797878 C43.0390414,51.5750729 45.0224642,52.0881406 46.574778,51.2242441 C48.1265557,50.3613809 48.6584712,48.4501649 47.7624724,46.9543632 C46.8670098,45.4601115 44.8819784,44.9470438 43.3312732,45.809907 Z M20.1634579,31.5990158 C18.3703879,31.5990158 16.9178082,32.9987142 16.9178082,34.7265073 C16.9178082,36.4532669 18.3703879,37.8529653 20.1634579,37.8529653 C21.9554555,37.8529653 23.4080352,36.4532669 23.4080352,34.7265073 C23.4080352,32.9987142 21.9554555,31.5990158 20.1634579,31.5990158 L20.1634579,31.5990158 Z" id="Fill-5" fill="#FFFFFE" transform="translate(33.835616, 34.726027) rotate(-480.000000) translate(-33.835616, -34.726027) "></path>
                        </g>
                        <g id="Group-2" transform="translate(0.000000, 23.000000)">
                            <path d="M16.8214801,0 C18.574161,0 20.3268466,0.012242997 22.0795369,0.0367289912 C27.1816128,0.108007684 31.2815892,4.41872759 31.2815892,9.7117775 L31.2815892,10.276555 C31.2815892,15.5520718 27.2077546,19.8552944 22.1229532,19.9508922 C20.3816065,19.9836307 18.6442021,20 16.9107401,20 C15.2036921,20 13.4966469,19.9841258 11.7896042,19.9523774 C6.70407786,19.8577943 2.62915084,15.5542566 2.62915084,10.2780062 L2.62915084,9.70856241 C2.62915085,4.41382999 6.73163947,0.10239423 11.8353674,0.0334566991 C13.2802471,0.0139402913 14.7333546,0.0029623119 16.1946898,0.000522760923 L16.8214801,0 Z" id="Combined-Shape" stroke="#000000" fill="#FFFFFF" fill-rule="nonzero"></path>
                            <path d="M16.8214801,0 C18.574161,0 20.3268466,0.012242997 22.0795369,0.0367289912 C27.1816128,0.108007684 31.2815892,4.41872759 31.2815892,9.7117775 L31.2815892,10.276555 C31.2815892,15.5520718 27.2077546,19.8552944 22.1229532,19.9508922 C20.3816065,19.9836307 18.6442021,20 16.9107401,20 L16.1946898,0.000522760923 L16.8214801,0 Z" id="Combined-Shape-path" fill="#C4C4C4" fill-rule="nonzero"></path>
                            <path d="M12.0901574,3.89142432 C13.6798535,3.86857001 15.2828836,3.85714286 16.8992478,3.85714286 C18.5706585,3.85714286 20.2420751,3.86936159 21.9134973,3.89379904 C25.1670876,3.94136941 27.7804878,6.68032562 27.7804878,10.0426587 C27.7804878,13.4190717 25.1643026,16.1738825 21.8973416,16.2375377 C20.2490164,16.2696555 18.6053746,16.2857143 16.9664159,16.2857143 C15.3457,16.2857143 13.7249872,16.2700109 12.1042777,16.2386043 C8.83651401,16.1752809 6.2195122,13.4198946 6.2195122,10.0426587 C6.2195122,6.67847125 8.83476187,3.93822438 12.0901574,3.89142432 Z" id="Rectangle" fill="#000000" fill-rule="nonzero"></path>
                            <path d="M19.3348944,12.0341151 C19.0259279,13.3386257 18.0450789,14.1428571 16.9456816,14.1428571 C15.8892402,14.1428571 14.9891252,13.2678622 14.646252,12.0419889 L14.646252,12.0419889 L19.3348944,12.0341151 Z M12.3513304,8 C13.3715469,8 14.1985957,8.84149465 14.1985957,9.87953092 C14.1985957,10.9175671 13.3715469,11.7590618 12.3513304,11.7590618 C11.3311139,11.7590618 10.504065,10.9175671 10.504065,9.87953092 C10.504065,8.84149465 11.3311139,8 12.3513304,8 Z M21.2340355,8 C22.2542519,8 23.0813008,8.84149465 23.0813008,9.87953092 C23.0813008,10.9175671 22.2542519,11.7590618 21.2340355,11.7590618 C20.213819,11.7590618 19.3867701,10.9175671 19.3867701,9.87953092 C19.3867701,8.84149465 20.213819,8 21.2340355,8 Z" id="Face" fill="#FFFFFF" fill-rule="nonzero"></path>
                            <path d="M2.14595589,6.79705101 L2.85905673,6.83581838 C2.57166634,7.80644023 2.40454398,8.75545787 2.35768969,9.6828713 C2.31083539,10.6102848 2.38297049,11.541403 2.57409499,12.4762259 L1.86099415,12.4374586 C0.777948673,12.3785794 -0.054020081,11.4200856 0.00273992723,10.296603 L0.0821554943,8.72468607 C0.138915503,7.60120339 1.06291041,6.73817178 2.14595589,6.79705101 Z M33.9158822,8.69106039 L33.9178444,8.72468607 L33.9972601,10.296603 C34.0534524,11.4088508 33.2386018,12.359393 32.1714212,12.4354231 L32.1390058,12.4374586 L31.425905,12.4762259 C31.6170295,11.541403 31.6891646,10.6102848 31.6423103,9.6828713 C31.5971293,8.78857979 31.4401175,7.87419965 31.1712749,6.93973091 L31.1409432,6.83581838 L31.8540441,6.79705101 C32.9262591,6.73876056 33.8425887,7.58403495 33.9158822,8.69106039 Z" id="Combined-Shape" fill="#000000"></path>
                        </g>
                    </g>
                </g>
            </g>
        </g>
    </g>
</svg>