<svg width="348" height="303" viewBox="0 0 348 303" fill="none" xmlns="http://www.w3.org/2000/svg">
<path d="M221.888 181.645L269.379 151.97C271.721 150.507 274.805 151.219 276.269 153.561L345.023 263.59C346.486 265.932 345.774 269.016 343.432 270.48L295.941 300.155C293.599 301.618 290.515 300.906 289.051 298.564L220.298 188.535C218.834 186.193 219.546 183.109 221.888 181.645Z" fill="white"/>
<g filter="url(#filter0_ii)">
<path d="M221.888 181.645L269.379 151.97C271.721 150.507 274.805 151.219 276.269 153.561L345.023 263.59C346.486 265.932 345.774 269.016 343.432 270.48L295.941 300.155C293.599 301.618 290.515 300.906 289.051 298.564L220.298 188.535C218.834 186.193 219.546 183.109 221.888 181.645Z" fill="white"/>
</g>
<path d="M275.34 156.991L340.255 260.877C341.499 262.867 340.894 265.489 338.903 266.733L294.314 294.595C292.323 295.839 289.701 295.234 288.457 293.243L223.542 189.358C222.225 187.25 222.866 184.474 224.974 183.157L239.017 174.382C244.405 171.014 245.355 175.58 249.375 173.068C253.395 170.556 249.708 167.701 255.096 164.334L269.139 155.559C271.247 154.242 274.023 154.883 275.34 156.991Z" fill="white"/>
<path d="M275.34 156.991L340.255 260.877C341.499 262.867 340.894 265.489 338.903 266.733L294.314 294.595C292.323 295.839 289.701 295.234 288.457 293.243L223.542 189.358C222.225 187.25 222.866 184.474 224.974 183.157L239.017 174.382C244.405 171.014 245.355 175.58 249.375 173.068C253.395 170.556 249.708 167.701 255.096 164.334L269.139 155.559C271.247 154.242 274.023 154.883 275.34 156.991Z" fill="url(#paint0_linear)"/>
<path opacity="0.543759" d="M247.26 169.231L247.098 169.332C246.601 169.643 246.449 170.298 246.76 170.796L246.871 170.973C247.182 171.47 247.837 171.621 248.335 171.311L248.497 171.209C248.994 170.898 249.146 170.243 248.835 169.745L248.724 169.569C248.413 169.071 247.758 168.92 247.26 169.231Z" fill="#4F4F4F"/>
<path d="M129.454 194.275L114.545 170.416C113.528 168.788 113.983 166.56 115.573 165.457C115.573 165.457 126.123 158.029 140.016 149.348C153.91 140.666 165.716 134.13 165.716 134.13C167.39 133.186 169.596 133.746 170.621 135.385L180.109 150.57L180.597 150.323L185.103 157.534L184.662 157.857L185.99 159.981L186.478 159.734L190.984 166.945L190.543 167.268L194.656 173.85L195.144 173.603L199.65 180.814L199.209 181.137L236.329 240.54C237.136 241.833 236.775 243.578 235.528 244.448C235.528 244.448 223.825 252.712 209.824 261.379C195.823 270.046 183.978 276.368 183.978 276.368C182.655 277.089 180.917 276.634 180.114 275.348L134.007 201.562L133.754 201.747C133.754 201.747 133.645 201.842 131.343 198.158C129.04 194.473 129.173 194.417 129.173 194.417L129.454 194.275Z" fill="white"/>
<g filter="url(#filter1_ii)">
<path d="M129.454 194.275L114.545 170.416C113.528 168.788 113.983 166.56 115.573 165.457C115.573 165.457 126.123 158.029 140.016 149.348C153.91 140.666 165.716 134.13 165.716 134.13C167.39 133.186 169.596 133.746 170.621 135.385L180.109 150.57L180.597 150.323L185.103 157.534L184.662 157.857L185.99 159.981L186.478 159.734L190.984 166.945L190.543 167.268L194.656 173.85L195.144 173.603L199.65 180.814L199.209 181.137L236.329 240.54C237.136 241.833 236.775 243.578 235.528 244.448C235.528 244.448 223.825 252.712 209.824 261.379C195.823 270.046 183.978 276.368 183.978 276.368C182.655 277.089 180.917 276.634 180.114 275.348L134.007 201.562L133.754 201.747C133.754 201.747 133.645 201.842 131.343 198.158C129.04 194.473 129.173 194.417 129.173 194.417L129.454 194.275Z" fill="white"/>
</g>
<path d="M210.481 249.555L199.94 256.142L202.615 260.423L213.156 253.836L210.481 249.555Z" fill="#D7D7D7" stroke="#C6C6C6" stroke-width="0.5"/>
<path d="M187.235 267.057L190.723 264.877" stroke="#CFCFCF" stroke-width="0.5" stroke-linecap="square"/>
<path d="M222.124 245.256L225.612 243.076" stroke="#CFCFCF" stroke-width="0.5" stroke-linecap="square"/>
<path d="M149.346 149.028L136.885 156.814L137.504 157.805L149.965 150.019L149.346 149.028Z" fill="black" fill-opacity="0.2"/>
<g filter="url(#filter2_i)">
<path d="M149.346 149.028L136.885 156.814L137.504 157.805L149.965 150.019L149.346 149.028Z" fill="white"/>
</g>
<path d="M172.443 142.737L229.349 233.806C229.403 233.893 229.377 234.009 229.289 234.064L177.523 266.411C177.435 266.466 177.319 266.439 177.264 266.351L120.358 175.283C120.303 175.195 120.33 175.079 120.418 175.025L172.184 142.677C172.272 142.622 172.388 142.649 172.443 142.737Z" fill="white"/>
<path d="M172.443 142.737L229.349 233.806C229.403 233.893 229.377 234.009 229.289 234.064L177.523 266.411C177.435 266.466 177.319 266.439 177.264 266.351L120.358 175.283C120.303 175.195 120.33 175.079 120.418 175.025L172.184 142.677C172.272 142.622 172.388 142.649 172.443 142.737Z" fill="url(#paint1_linear)"/>
<path d="M4.44149 136.758C7.31504 133.236 14.7898 127.702 26.8658 120.156C40.3144 111.753 49.6913 106.964 54.9966 105.789L54.9966 105.789C56.666 105.42 58.3872 106.142 59.2933 107.592L122.132 208.155C123.126 209.745 122.894 211.811 121.572 213.141C118.136 216.597 110.195 222.214 97.7496 229.991C85.2197 237.821 76.6254 242.527 71.9669 244.111L71.9669 244.111C70.1926 244.714 68.2365 244.017 67.2435 242.427L4.14572 141.45C3.22962 139.984 3.34854 138.097 4.44149 136.758Z" fill="white"/>
<g filter="url(#filter3_ii)">
<path d="M4.44149 136.758C7.31504 133.236 14.7898 127.702 26.8658 120.156C40.3144 111.753 49.6913 106.964 54.9966 105.789L54.9966 105.789C56.666 105.42 58.3872 106.142 59.2933 107.592L122.132 208.155C123.126 209.745 122.894 211.811 121.572 213.141C118.136 216.597 110.195 222.214 97.7496 229.991C85.2197 237.821 76.6254 242.527 71.9669 244.111L71.9669 244.111C70.1926 244.714 68.2365 244.017 67.2435 242.427L4.14572 141.45C3.22962 139.984 3.34854 138.097 4.44149 136.758Z" fill="white"/>
</g>
<path d="M58.9718 112.006L115.671 202.743C115.718 202.818 115.695 202.916 115.62 202.963L64.951 234.625C64.8764 234.671 64.778 234.649 64.7314 234.574L8.03216 143.836C7.98552 143.762 8.00822 143.663 8.08287 143.617L58.7522 111.955C58.8269 111.908 58.9252 111.931 58.9718 112.006Z" fill="white"/>
<path d="M58.9718 112.006L115.671 202.743C115.718 202.818 115.695 202.916 115.62 202.963L64.951 234.625C64.8764 234.671 64.778 234.649 64.7314 234.574L8.03216 143.836C7.98552 143.762 8.00822 143.663 8.08287 143.617L58.7522 111.955C58.8269 111.908 58.9252 111.931 58.9718 112.006Z" fill="url(#paint2_linear)"/>
<path opacity="0.2" d="M31.0808 123.04L30.9142 123.144C30.4166 123.455 30.2652 124.11 30.5762 124.608L30.6897 124.789C31.0007 125.287 31.6562 125.438 32.1538 125.127L32.3204 125.023C32.8181 124.712 32.9694 124.057 32.6584 123.559L32.5449 123.378C32.2339 122.88 31.5784 122.729 31.0808 123.04Z" fill="#ECECEC"/>
<path d="M89.9379 11.9422C89.6748 11.521 89.4117 11.0999 89.1558 10.6904C88.9365 10.3394 88.706 9.99544 88.4794 9.63275C87.9747 8.87469 87.4476 8.13033 86.8498 7.44663C86.2336 6.75814 85.5758 6.17687 84.7915 5.69095C84.0258 5.20978 83.1963 4.84974 82.3286 4.6273C81.4611 4.40494 80.574 4.32487 79.6969 4.38498C78.8014 4.44041 77.9824 4.64305 77.1588 4.96248C76.3463 5.27484 75.5813 5.68793 74.8381 6.136C74.4964 6.33335 74.1619 6.54238 73.8163 6.75833L72.6234 7.50376L39.6687 28.0961L38.4757 28.8416C38.1413 29.0506 37.8141 29.2712 37.4684 29.4872C36.7472 29.9704 36.0407 30.4771 35.3964 31.0586C34.7482 31.6587 34.207 32.306 33.7647 33.0866C33.3262 33.8486 33.0093 34.681 32.8288 35.5583C32.6484 36.4356 32.6083 37.339 32.7051 38.2382C32.7981 39.1561 33.0321 40.0021 33.3808 40.8578C33.7221 41.7017 34.1601 42.5018 34.6313 43.2807C34.8395 43.6386 35.0589 43.9897 35.2855 44.3523L36.0677 45.6041L96.231 141.886L97.0132 143.137C97.2325 143.488 97.4629 143.832 97.6895 144.195C98.1943 144.953 98.7213 145.697 99.3192 146.381C99.9353 147.07 100.593 147.651 101.377 148.137C102.143 148.618 102.973 148.978 103.84 149.2C104.708 149.423 105.595 149.503 106.472 149.443C107.368 149.387 108.187 149.185 109.01 148.865C109.823 148.553 110.588 148.14 111.331 147.692C111.673 147.494 112.007 147.285 112.353 147.069L147.693 124.986C148.028 124.777 148.355 124.556 148.7 124.341C149.422 123.857 150.128 123.351 150.773 122.769C151.421 122.169 151.962 121.522 152.404 120.741C152.843 119.979 153.16 119.147 153.34 118.269C153.521 117.392 153.561 116.489 153.464 115.59C153.371 114.672 153.137 113.826 152.788 112.97C152.447 112.126 152.009 111.326 151.538 110.547C151.329 110.189 151.11 109.838 150.883 109.475L150.101 108.224L89.9379 11.9422Z" fill="white"/>
<g filter="url(#filter4_ii)">
<path d="M89.9379 11.9422C89.6748 11.521 89.4117 11.0999 89.1558 10.6904C88.9365 10.3394 88.706 9.99544 88.4794 9.63275C87.9747 8.87469 87.4476 8.13033 86.8498 7.44663C86.2336 6.75814 85.5758 6.17687 84.7915 5.69095C84.0258 5.20978 83.1963 4.84974 82.3286 4.6273C81.4611 4.40494 80.574 4.32487 79.6969 4.38498C78.8014 4.44041 77.9824 4.64305 77.1588 4.96248C76.3463 5.27484 75.5813 5.68793 74.8381 6.136C74.4964 6.33335 74.1619 6.54238 73.8163 6.75833L72.6234 7.50376L39.6687 28.0961L38.4757 28.8416C38.1413 29.0506 37.8141 29.2712 37.4684 29.4872C36.7472 29.9704 36.0407 30.4771 35.3964 31.0586C34.7482 31.6587 34.207 32.306 33.7647 33.0866C33.3262 33.8486 33.0093 34.681 32.8288 35.5583C32.6484 36.4356 32.6083 37.339 32.7051 38.2382C32.7981 39.1561 33.0321 40.0021 33.3808 40.8578C33.7221 41.7017 34.1601 42.5018 34.6313 43.2807C34.8395 43.6386 35.0589 43.9897 35.2855 44.3523L36.0677 45.6041L96.231 141.886L97.0132 143.137C97.2325 143.488 97.4629 143.832 97.6895 144.195C98.1943 144.953 98.7213 145.697 99.3192 146.381C99.9353 147.07 100.593 147.651 101.377 148.137C102.143 148.618 102.973 148.978 103.84 149.2C104.708 149.423 105.595 149.503 106.472 149.443C107.368 149.387 108.187 149.185 109.01 148.865C109.823 148.553 110.588 148.14 111.331 147.692C111.673 147.494 112.007 147.285 112.353 147.069L147.693 124.986C148.028 124.777 148.355 124.556 148.7 124.341C149.422 123.857 150.128 123.351 150.773 122.769C151.421 122.169 151.962 121.522 152.404 120.741C152.843 119.979 153.16 119.147 153.34 118.269C153.521 117.392 153.561 116.489 153.464 115.59C153.371 114.672 153.137 113.826 152.788 112.97C152.447 112.126 152.009 111.326 151.538 110.547C151.329 110.189 151.11 109.838 150.883 109.475L150.101 108.224L89.9379 11.9422Z" fill="white"/>
</g>
<g filter="url(#filter5_i)">
<path d="M89.275 14.7842C89.0119 14.363 88.7488 13.9418 88.4929 13.5323C88.2736 13.1814 88.0431 12.8374 87.8165 12.4747C87.3118 11.7166 86.7847 10.9723 86.1869 10.2886C85.5707 9.60008 84.9129 9.01882 84.1286 8.5329C83.3629 8.05173 82.5334 7.69169 81.6657 7.46924C80.7982 7.24688 79.9111 7.16682 79.034 7.22693C78.1385 7.28236 77.3195 7.485 76.4959 7.80442C75.6834 8.11679 74.9184 8.52988 74.1752 8.97795C73.8335 9.1753 73.499 9.38433 73.1534 9.60028L71.9605 10.3457L42.5136 28.7461L41.3206 29.4916C40.9862 29.7006 40.659 29.9212 40.3133 30.1372C39.5922 30.6205 38.8856 31.1271 38.2413 31.7086C37.5932 32.3088 37.052 32.956 36.6096 33.7366C36.1712 34.4986 35.8542 35.331 35.6737 36.2083C35.4933 37.0856 35.4532 37.989 35.55 38.8882C35.643 39.8061 35.8771 40.6521 36.2257 41.5078C36.5671 42.3517 37.005 43.1518 37.4763 43.9308C37.6844 44.2887 37.9038 44.6397 38.1304 45.0023L38.9126 46.2541L97.2057 139.542L97.9878 140.794C98.2071 141.145 98.4375 141.489 98.6641 141.852C99.1689 142.61 99.696 143.354 100.294 144.038C100.91 144.726 101.568 145.308 102.352 145.794C103.118 146.275 103.947 146.635 104.815 146.857C105.683 147.08 106.57 147.16 107.447 147.1C108.342 147.044 109.161 146.842 109.985 146.522C110.797 146.21 111.562 145.797 112.305 145.349C112.647 145.151 112.982 144.942 113.327 144.726L145.16 124.835C145.494 124.626 145.822 124.405 146.167 124.189C146.889 123.706 147.595 123.2 148.239 122.618C148.888 122.018 149.429 121.371 149.871 120.59C150.31 119.828 150.627 118.996 150.807 118.118C150.987 117.241 151.027 116.338 150.931 115.438C150.838 114.52 150.603 113.674 150.255 112.819C149.913 111.975 149.476 111.175 149.004 110.396C148.796 110.038 148.577 109.687 148.35 109.324L147.568 108.073L89.275 14.7842Z" fill="white"/>
</g>
<path d="M58.8443 18.5503L55.4231 20.6881L56.4915 22.3979C57.0792 23.3384 58.3214 23.6222 59.2662 23.0319C60.2109 22.4415 60.5004 21.2006 59.9127 20.2601L58.8443 18.5503ZM55.6262 20.7346L58.7968 18.7534L59.7874 20.3384C60.3321 21.21 60.0638 22.3601 59.1883 22.9072L59.1295 22.9424C58.2618 23.4423 57.1493 23.1719 56.6168 22.3196L55.6262 20.7346Z" fill="#C0C0C0"/>
<path fill-rule="evenodd" clip-rule="evenodd" d="M57.2035 20.6073C57.1343 20.6506 57.0433 20.6298 57.0003 20.5609C56.9572 20.492 56.9784 20.4011 57.0476 20.3579C57.1168 20.3147 57.2078 20.3355 57.2508 20.4043C57.2939 20.4732 57.2727 20.5641 57.2035 20.6073ZM57.7046 20.2942C57.6354 20.3374 57.5444 20.3166 57.5014 20.2478C57.4584 20.1789 57.4796 20.088 57.5488 20.0448C57.6179 20.0015 57.7089 20.0223 57.752 20.0912C57.795 20.1601 57.7738 20.251 57.7046 20.2942ZM58.2057 19.9811C58.1365 20.0243 58.0456 20.0035 58.0025 19.9346C57.9595 19.8658 57.9807 19.7749 58.0499 19.7316C58.1191 19.6884 58.21 19.7092 58.2531 19.7781C58.2961 19.8469 58.2749 19.9378 58.2057 19.9811ZM58.4504 22.6027C58.3812 22.646 58.2902 22.6252 58.2472 22.5563C58.2041 22.4874 58.2253 22.3966 58.2945 22.3533C58.3637 22.3101 58.4547 22.3309 58.4977 22.3997C58.5408 22.4686 58.5196 22.5595 58.4504 22.6027ZM58.9515 22.2896C58.8823 22.3328 58.7913 22.3121 58.7483 22.2432C58.7052 22.1743 58.7264 22.0834 58.7956 22.0402C58.8648 21.9969 58.9558 22.0177 58.9988 22.0866C59.0419 22.1555 59.0207 22.2464 58.9515 22.2896ZM59.4526 21.9765C59.3834 22.0197 59.2924 21.9989 59.2494 21.93C59.2064 21.8612 59.2276 21.7703 59.2967 21.727C59.3659 21.6838 59.4569 21.7046 59.5 21.7735C59.543 21.8424 59.5218 21.9332 59.4526 21.9765ZM59.0186 20.1668C58.9494 20.21 58.8584 20.1892 58.8154 20.1204C58.7723 20.0515 58.7935 19.9606 58.8627 19.9174C58.9319 19.8741 59.0229 19.8949 59.0659 19.9638C59.109 20.0327 59.0878 20.1236 59.0186 20.1668ZM58.5174 20.4799C58.4483 20.5232 58.3573 20.5024 58.3142 20.4335C58.2712 20.3646 58.2924 20.2737 58.3616 20.2305C58.4308 20.1873 58.5218 20.208 58.5648 20.2769C58.6078 20.3458 58.5866 20.4367 58.5174 20.4799ZM58.0163 20.7931C57.9471 20.8363 57.8562 20.8155 57.8131 20.7466C57.7701 20.6777 57.7913 20.5869 57.8605 20.5436C57.9297 20.5004 58.0206 20.5212 58.0637 20.5901C58.1067 20.6589 58.0855 20.7498 58.0163 20.7931ZM57.5152 21.1062C57.446 21.1494 57.355 21.1286 57.312 21.0598C57.269 20.9909 57.2902 20.9 57.3594 20.8568C57.4285 20.8135 57.5195 20.8343 57.5626 20.9032C57.6056 20.9721 57.5844 21.063 57.5152 21.1062ZM57.0141 21.4193C56.9449 21.4626 56.8539 21.4418 56.8109 21.3729C56.7678 21.304 56.789 21.2131 56.8582 21.1699C56.9274 21.1267 57.0184 21.1474 57.0614 21.2163C57.1045 21.2852 57.0833 21.3761 57.0141 21.4193ZM57.3258 21.9182C57.2566 21.9614 57.1656 21.9406 57.1226 21.8717C57.0796 21.8029 57.1008 21.712 57.1699 21.6687C57.2391 21.6255 57.3301 21.6463 57.3732 21.7152C57.4162 21.7841 57.395 21.8749 57.3258 21.9182ZM57.8269 21.605C57.7577 21.6483 57.6668 21.6275 57.6237 21.5586C57.5807 21.4897 57.6019 21.3988 57.6711 21.3556C57.7403 21.3124 57.8312 21.3332 57.8743 21.402C57.9173 21.4709 57.8961 21.5618 57.8269 21.605ZM58.328 21.2919C58.2589 21.3351 58.1679 21.3144 58.1248 21.2455C58.0818 21.1766 58.103 21.0857 58.1722 21.0425C58.2414 20.9992 58.3324 21.02 58.3754 21.0889C58.4184 21.1578 58.3972 21.2487 58.328 21.2919ZM58.8292 20.9788C58.76 21.022 58.669 21.0012 58.626 20.9323C58.5829 20.8635 58.6041 20.7726 58.6733 20.7293C58.7425 20.6861 58.8335 20.7069 58.8765 20.7758C58.9196 20.8447 58.8984 20.9355 58.8292 20.9788ZM59.3303 20.6656C59.2611 20.7089 59.1701 20.6881 59.1271 20.6192C59.084 20.5503 59.1052 20.4594 59.1744 20.4162C59.2436 20.373 59.3346 20.3938 59.3776 20.4626C59.4207 20.5315 59.3995 20.6224 59.3303 20.6656ZM59.642 21.1645C59.5728 21.2077 59.4818 21.1869 59.4388 21.1181C59.3958 21.0492 59.417 20.9583 59.4861 20.9151C59.5553 20.8718 59.6463 20.8926 59.6894 20.9615C59.7324 21.0304 59.7112 21.1213 59.642 21.1645ZM59.1409 21.4776C59.0717 21.5209 58.9807 21.5001 58.9377 21.4312C58.8946 21.3623 58.9158 21.2714 58.985 21.2282C59.0542 21.185 59.1452 21.2057 59.1882 21.2746C59.2313 21.3435 59.2101 21.4344 59.1409 21.4776ZM58.6398 21.7908C58.5706 21.834 58.4796 21.8132 58.4366 21.7443C58.3935 21.6755 58.4147 21.5846 58.4839 21.5413C58.5531 21.4981 58.6441 21.5189 58.6871 21.5878C58.7302 21.6566 58.709 21.7475 58.6398 21.7908ZM58.1386 22.1039C58.0695 22.1471 57.9785 22.1263 57.9354 22.0575C57.8924 21.9886 57.9136 21.8977 57.9828 21.8545C58.052 21.8112 58.143 21.832 58.186 21.9009C58.229 21.9698 58.2078 22.0607 58.1386 22.1039ZM57.6375 22.417C57.5683 22.4603 57.4774 22.4395 57.4343 22.3706C57.3913 22.3017 57.4125 22.2108 57.4817 22.1676C57.5509 22.1244 57.6418 22.1452 57.6849 22.214C57.7279 22.2829 57.7067 22.3738 57.6375 22.417Z" fill="#C0C0C0"/>
<path d="M86.0629 13.5464L146.181 109.756C146.236 109.844 146.21 109.96 146.122 110.015L99.0841 139.407C98.9962 139.462 98.8806 139.435 98.8257 139.347L38.7071 43.1376C38.6523 43.0498 38.679 42.9341 38.7668 42.8792L85.8045 13.4867C85.8924 13.4319 86.008 13.4586 86.0629 13.5464Z" fill="white"/>
<path d="M86.0629 13.5464L146.181 109.756C146.236 109.844 146.21 109.96 146.122 110.015L99.0841 139.407C98.9962 139.462 98.8806 139.435 98.8257 139.347L38.7071 43.1376C38.6523 43.0498 38.679 42.9341 38.7668 42.8792L85.8045 13.4867C85.8924 13.4319 86.008 13.4586 86.0629 13.5464Z" fill="url(#paint3_linear)"/>
<path fill-rule="evenodd" clip-rule="evenodd" d="M44.4557 58.5622L48.9938 65.8247L48.2998 66.3322C48.2998 66.3322 48.1907 66.4272 45.872 62.7166C43.5534 59.006 43.6866 58.9495 43.6866 58.9495L44.4557 58.5622ZM50.3784 68.0404L54.9164 75.3029L54.2224 75.8104C54.2224 75.8104 54.1133 75.9054 51.7947 72.1948C49.476 68.4841 49.6092 68.4277 49.6092 68.4277L50.3784 68.0404ZM59.1064 82.0083L63.6445 89.2707L62.9505 89.7782C62.9505 89.7782 62.8414 89.8732 60.5227 86.1626C58.2041 82.452 58.3373 82.3955 58.3373 82.3955L59.1064 82.0083Z" fill="#6E6E6E"/>
<path d="M63.1834 17.9112C64.2212 17.2626 65.5859 17.5744 66.2315 18.6076C66.8771 19.6407 66.5591 21.004 65.5213 21.6525C64.4834 22.3011 63.1187 21.9893 62.4731 20.9561C61.8275 19.9229 62.1455 18.5597 63.1834 17.9112ZM63.2613 18.0359C62.2926 18.6412 61.9959 19.9135 62.5984 20.8778C63.201 21.8421 64.4747 22.1331 65.4433 21.5278C66.412 20.9225 66.7088 19.6502 66.1062 18.6859C65.5037 17.7216 64.23 17.4306 63.2613 18.0359ZM64.8978 20.6548C64.4135 20.9575 63.7766 20.812 63.4754 20.3298C63.1741 19.8477 63.3225 19.2115 63.8068 18.9089C64.2911 18.6062 64.928 18.7517 65.2293 19.2339C65.5306 19.716 65.3822 20.3522 64.8978 20.6548Z" fill="#D1D1D1"/>
<path fill-rule="evenodd" clip-rule="evenodd" d="M202.713 42.7278L202.13 42.9911C202.13 42.9911 202.028 43.0263 204.527 47.0264C207.027 51.0266 207.103 50.9498 207.103 50.9498L207.605 50.5569L202.713 42.7278Z" fill="#9C9C9C"/>
<path fill-rule="evenodd" clip-rule="evenodd" d="M212.906 59.0411L212.278 59.2314C212.278 59.2314 212.163 59.2456 217.183 67.2795C222.203 75.3134 222.266 75.2157 222.266 75.2157L222.732 74.765L212.906 59.0411Z" fill="#9C9C9C"/>
<path d="M192.446 27.3825C192.175 26.949 191.904 26.5156 191.641 26.0941C191.415 25.7329 191.178 25.3788 190.945 25.0055C190.426 24.2252 189.884 23.4587 189.27 22.7541C188.638 22.0444 187.963 21.4445 187.161 20.9416C186.377 20.4436 185.529 20.0696 184.643 19.8364C183.757 19.6033 182.852 19.516 181.958 19.5725C181.045 19.6241 180.211 19.8271 179.373 20.1499C178.546 20.4654 177.768 20.8846 177.013 21.3398C176.665 21.5402 176.326 21.7526 175.974 21.972L174.762 22.7295L141.275 43.6547L140.063 44.4122C139.723 44.6245 139.39 44.8489 139.039 45.0683C138.306 45.5597 137.589 46.0752 136.935 46.6677C136.278 47.2794 135.73 47.9401 135.283 48.7379C134.84 49.5168 134.522 50.3686 134.343 51.2672C134.164 52.1659 134.129 53.0921 134.233 54.0148C134.333 54.9567 134.576 55.8256 134.937 56.7052C135.29 57.5727 135.741 58.3957 136.226 59.1973C136.441 59.5656 136.667 59.9269 136.9 60.3001L137.705 61.5884L197.538 157.342L198.343 158.63C198.569 158.991 198.806 159.345 199.039 159.719C199.558 160.499 200.1 161.265 200.714 161.97C201.346 162.68 202.021 163.28 202.823 163.783C203.607 164.281 204.455 164.655 205.341 164.888C206.227 165.121 207.132 165.208 208.027 165.152C208.939 165.1 209.773 164.897 210.611 164.574C211.438 164.259 212.216 163.84 212.971 163.384C213.319 163.184 213.658 162.972 214.01 162.752L249.921 140.312C250.261 140.1 250.594 139.875 250.945 139.656C251.678 139.165 252.395 138.649 253.049 138.057C253.706 137.445 254.254 136.784 254.701 135.986C255.144 135.207 255.462 134.356 255.641 133.457C255.82 132.558 255.855 131.632 255.751 130.709C255.651 129.768 255.407 128.899 255.047 128.019C254.694 127.152 254.243 126.329 253.757 125.527C253.543 125.159 253.317 124.797 253.084 124.424L252.279 123.136L192.446 27.3825Z" fill="white"/>
<g filter="url(#filter6_ii)">
<path d="M192.446 27.3825C192.175 26.949 191.904 26.5156 191.641 26.0941C191.415 25.7329 191.178 25.3788 190.945 25.0055C190.426 24.2252 189.884 23.4587 189.27 22.7541C188.638 22.0444 187.963 21.4445 187.161 20.9416C186.377 20.4436 185.529 20.0696 184.643 19.8364C183.757 19.6033 182.852 19.516 181.958 19.5725C181.045 19.6241 180.211 19.8271 179.373 20.1499C178.546 20.4654 177.768 20.8846 177.013 21.3398C176.665 21.5402 176.326 21.7526 175.974 21.972L174.762 22.7295L141.275 43.6547L140.063 44.4122C139.723 44.6245 139.39 44.8489 139.039 45.0683C138.306 45.5597 137.589 46.0752 136.935 46.6677C136.278 47.2794 135.73 47.9401 135.283 48.7379C134.84 49.5168 134.522 50.3686 134.343 51.2672C134.164 52.1659 134.129 53.0921 134.233 54.0148C134.333 54.9567 134.576 55.8256 134.937 56.7052C135.29 57.5727 135.741 58.3957 136.226 59.1973C136.441 59.5656 136.667 59.9269 136.9 60.3001L137.705 61.5884L197.538 157.342L198.343 158.63C198.569 158.991 198.806 159.345 199.039 159.719C199.558 160.499 200.1 161.265 200.714 161.97C201.346 162.68 202.021 163.28 202.823 163.783C203.607 164.281 204.455 164.655 205.341 164.888C206.227 165.121 207.132 165.208 208.027 165.152C208.939 165.1 209.773 164.897 210.611 164.574C211.438 164.259 212.216 163.84 212.971 163.384C213.319 163.184 213.658 162.972 214.01 162.752L249.921 140.312C250.261 140.1 250.594 139.875 250.945 139.656C251.678 139.165 252.395 138.649 253.049 138.057C253.706 137.445 254.254 136.784 254.701 135.986C255.144 135.207 255.462 134.356 255.641 133.457C255.82 132.558 255.855 131.632 255.751 130.709C255.651 129.768 255.407 128.899 255.047 128.019C254.694 127.152 254.243 126.329 253.757 125.527C253.543 125.159 253.317 124.797 253.084 124.424L252.279 123.136L192.446 27.3825Z" fill="white"/>
</g>
<path d="M166.514 31.7343C167.151 31.3363 167.992 31.5339 168.393 32.1757L168.396 32.1806C168.797 32.8224 168.606 33.6653 167.969 34.0633C167.332 34.4613 166.491 34.2637 166.09 33.6219L166.087 33.617C165.686 32.9752 165.877 32.1323 166.514 31.7343Z" fill="black" fill-opacity="0.2"/>
<g filter="url(#filter7_i)">
<path d="M166.514 31.7343C167.151 31.3363 167.992 31.5339 168.393 32.1757L168.396 32.1806C168.797 32.8224 168.606 33.6653 167.969 34.0633C167.332 34.4613 166.491 34.2637 166.09 33.6219L166.087 33.617C165.686 32.9752 165.877 32.1323 166.514 31.7343Z" fill="white"/>
</g>
<path d="M155.604 39.0745L162.136 34.9931C162.349 34.8597 162.675 34.9161 162.82 35.1469C162.964 35.3777 162.871 35.6956 162.658 35.829L156.126 39.9104C155.913 40.0438 155.587 39.9874 155.443 39.7566C155.298 39.5258 155.391 39.208 155.604 39.0745Z" fill="black" fill-opacity="0.2"/>
<g filter="url(#filter8_i)">
<path d="M155.604 39.0745L162.136 34.9931C162.349 34.8597 162.675 34.9161 162.82 35.1469C162.964 35.3777 162.871 35.6956 162.658 35.829L156.126 39.9104C155.913 40.0438 155.587 39.9874 155.443 39.7566C155.298 39.5258 155.391 39.208 155.604 39.0745Z" fill="white"/>
</g>
<path d="M187.912 24.6131L252.381 127.785C252.461 127.914 252.422 128.084 252.293 128.164L202.398 159.342C202.269 159.423 202.1 159.384 202.019 159.255L137.55 56.0827C137.469 55.9539 137.509 55.7842 137.637 55.7037L187.533 24.5256C187.662 24.4452 187.831 24.4843 187.912 24.6131Z" fill="white"/>
<path d="M187.912 24.6131L252.381 127.785C252.461 127.914 252.422 128.084 252.293 128.164L202.398 159.342C202.269 159.423 202.1 159.384 202.019 159.255L137.55 56.0827C137.469 55.9539 137.509 55.7842 137.637 55.7037L187.533 24.5256C187.662 24.4452 187.831 24.4843 187.912 24.6131Z" fill="url(#paint4_linear)"/>
<defs>
<filter id="filter0_ii" x="216.648" y="149.32" width="132.024" height="153.484" filterUnits="userSpaceOnUse" color-interpolation-filters="sRGB">
<feFlood flood-opacity="0" result="BackgroundImageFix"/>
<feBlend mode="normal" in="SourceGraphic" in2="BackgroundImageFix" result="shape"/>
<feColorMatrix in="SourceAlpha" type="matrix" values="0 0 0 0 0 0 0 0 0 0 0 0 0 0 0 0 0 0 127 0" result="hardAlpha"/>
<feOffset dx="1"/>
<feGaussianBlur stdDeviation="1"/>
<feComposite in2="hardAlpha" operator="arithmetic" k2="-1" k3="1"/>
<feColorMatrix type="matrix" values="0 0 0 0 1 0 0 0 0 1 0 0 0 0 1 0 0 0 0.1 0"/>
<feBlend mode="normal" in2="shape" result="effect1_innerShadow"/>
<feColorMatrix in="SourceAlpha" type="matrix" values="0 0 0 0 0 0 0 0 0 0 0 0 0 0 0 0 0 0 127 0" result="hardAlpha"/>
<feOffset dx="-1"/>
<feGaussianBlur stdDeviation="1"/>
<feComposite in2="hardAlpha" operator="arithmetic" k2="-1" k3="1"/>
<feColorMatrix type="matrix" values="0 0 0 0 0 0 0 0 0 0 0 0 0 0 0 0 0 0 0.4 0"/>
<feBlend mode="normal" in2="effect1_innerShadow" result="effect2_innerShadow"/>
</filter>
<filter id="filter1_ii" x="113.003" y="133.672" width="124.757" height="143.039" filterUnits="userSpaceOnUse" color-interpolation-filters="sRGB">
<feFlood flood-opacity="0" result="BackgroundImageFix"/>
<feBlend mode="normal" in="SourceGraphic" in2="BackgroundImageFix" result="shape"/>
<feColorMatrix in="SourceAlpha" type="matrix" values="0 0 0 0 0 0 0 0 0 0 0 0 0 0 0 0 0 0 127 0" result="hardAlpha"/>
<feOffset dx="1"/>
<feGaussianBlur stdDeviation="1"/>
<feComposite in2="hardAlpha" operator="arithmetic" k2="-1" k3="1"/>
<feColorMatrix type="matrix" values="0 0 0 0 1 0 0 0 0 1 0 0 0 0 1 0 0 0 0.1 0"/>
<feBlend mode="normal" in2="shape" result="effect1_innerShadow"/>
<feColorMatrix in="SourceAlpha" type="matrix" values="0 0 0 0 0 0 0 0 0 0 0 0 0 0 0 0 0 0 127 0" result="hardAlpha"/>
<feOffset dx="-1"/>
<feGaussianBlur stdDeviation="1"/>
<feComposite in2="hardAlpha" operator="arithmetic" k2="-1" k3="1"/>
<feColorMatrix type="matrix" values="0 0 0 0 0 0 0 0 0 0 0 0 0 0 0 0 0 0 0.4 0"/>
<feBlend mode="normal" in2="effect1_innerShadow" result="effect2_innerShadow"/>
</filter>
<filter id="filter2_i" x="136.885" y="149.028" width="13.0794" height="8.77674" filterUnits="userSpaceOnUse" color-interpolation-filters="sRGB">
<feFlood flood-opacity="0" result="BackgroundImageFix"/>
<feBlend mode="normal" in="SourceGraphic" in2="BackgroundImageFix" result="shape"/>
<feColorMatrix in="SourceAlpha" type="matrix" values="0 0 0 0 0 0 0 0 0 0 0 0 0 0 0 0 0 0 127 0" result="hardAlpha"/>
<feOffset/>
<feGaussianBlur stdDeviation="0.5"/>
<feComposite in2="hardAlpha" operator="arithmetic" k2="-1" k3="1"/>
<feColorMatrix type="matrix" values="0 0 0 0 0 0 0 0 0 0 0 0 0 0 0 0 0 0 0.4 0"/>
<feBlend mode="normal" in2="shape" result="effect1_innerShadow"/>
</filter>
<filter id="filter3_ii" x="-0.043335" y="102.055" width="126.142" height="145.137" filterUnits="userSpaceOnUse" color-interpolation-filters="sRGB">
<feFlood flood-opacity="0" result="BackgroundImageFix"/>
<feBlend mode="normal" in="SourceGraphic" in2="BackgroundImageFix" result="shape"/>
<feColorMatrix in="SourceAlpha" type="matrix" values="0 0 0 0 0 0 0 0 0 0 0 0 0 0 0 0 0 0 127 0" result="hardAlpha"/>
<feOffset dx="1"/>
<feGaussianBlur stdDeviation="1"/>
<feComposite in2="hardAlpha" operator="arithmetic" k2="-1" k3="1"/>
<feColorMatrix type="matrix" values="0 0 0 0 1 0 0 0 0 1 0 0 0 0 1 0 0 0 0.1 0"/>
<feBlend mode="normal" in2="shape" result="effect1_innerShadow"/>
<feColorMatrix in="SourceAlpha" type="matrix" values="0 0 0 0 0 0 0 0 0 0 0 0 0 0 0 0 0 0 127 0" result="hardAlpha"/>
<feOffset dx="-1"/>
<feGaussianBlur stdDeviation="1"/>
<feComposite in2="hardAlpha" operator="arithmetic" k2="-1" k3="1"/>
<feColorMatrix type="matrix" values="0 0 0 0 0 0 0 0 0 0 0 0 0 0 0 0 0 0 0.4 0"/>
<feBlend mode="normal" in2="effect1_innerShadow" result="effect2_innerShadow"/>
</filter>
<filter id="filter4_ii" x="31.6539" y="4.36566" width="122.861" height="145.096" filterUnits="userSpaceOnUse" color-interpolation-filters="sRGB">
<feFlood flood-opacity="0" result="BackgroundImageFix"/>
<feBlend mode="normal" in="SourceGraphic" in2="BackgroundImageFix" result="shape"/>
<feColorMatrix in="SourceAlpha" type="matrix" values="0 0 0 0 0 0 0 0 0 0 0 0 0 0 0 0 0 0 127 0" result="hardAlpha"/>
<feOffset dx="1"/>
<feGaussianBlur stdDeviation="1"/>
<feComposite in2="hardAlpha" operator="arithmetic" k2="-1" k3="1"/>
<feColorMatrix type="matrix" values="0 0 0 0 1 0 0 0 0 1 0 0 0 0 1 0 0 0 0.1 0"/>
<feBlend mode="normal" in2="shape" result="effect1_innerShadow"/>
<feColorMatrix in="SourceAlpha" type="matrix" values="0 0 0 0 0 0 0 0 0 0 0 0 0 0 0 0 0 0 127 0" result="hardAlpha"/>
<feOffset dx="-1"/>
<feGaussianBlur stdDeviation="1"/>
<feComposite in2="hardAlpha" operator="arithmetic" k2="-1" k3="1"/>
<feColorMatrix type="matrix" values="0 0 0 0 0 0 0 0 0 0 0 0 0 0 0 0 0 0 0.4 0"/>
<feBlend mode="normal" in2="effect1_innerShadow" result="effect2_innerShadow"/>
</filter>
<filter id="filter5_i" x="35.4988" y="7.20761" width="115.483" height="139.911" filterUnits="userSpaceOnUse" color-interpolation-filters="sRGB">
<feFlood flood-opacity="0" result="BackgroundImageFix"/>
<feBlend mode="normal" in="SourceGraphic" in2="BackgroundImageFix" result="shape"/>
<feColorMatrix in="SourceAlpha" type="matrix" values="0 0 0 0 0 0 0 0 0 0 0 0 0 0 0 0 0 0 127 0" result="hardAlpha"/>
<feOffset/>
<feGaussianBlur stdDeviation="0.5"/>
<feComposite in2="hardAlpha" operator="arithmetic" k2="-1" k3="1"/>
<feColorMatrix type="matrix" values="0 0 0 0 0.633237 0 0 0 0 0.633237 0 0 0 0 0.633237 0 0 0 1 0"/>
<feBlend mode="normal" in2="shape" result="effect1_innerShadow"/>
</filter>
<filter id="filter6_ii" x="129.648" y="16.0891" width="130.688" height="152.546" filterUnits="userSpaceOnUse" color-interpolation-filters="sRGB">
<feFlood flood-opacity="0" result="BackgroundImageFix"/>
<feBlend mode="normal" in="SourceGraphic" in2="BackgroundImageFix" result="shape"/>
<feColorMatrix in="SourceAlpha" type="matrix" values="0 0 0 0 0 0 0 0 0 0 0 0 0 0 0 0 0 0 127 0" result="hardAlpha"/>
<feOffset dx="1"/>
<feGaussianBlur stdDeviation="1"/>
<feComposite in2="hardAlpha" operator="arithmetic" k2="-1" k3="1"/>
<feColorMatrix type="matrix" values="0 0 0 0 1 0 0 0 0 1 0 0 0 0 1 0 0 0 0.1 0"/>
<feBlend mode="normal" in2="shape" result="effect1_innerShadow"/>
<feColorMatrix in="SourceAlpha" type="matrix" values="0 0 0 0 0 0 0 0 0 0 0 0 0 0 0 0 0 0 127 0" result="hardAlpha"/>
<feOffset dx="-1"/>
<feGaussianBlur stdDeviation="1"/>
<feComposite in2="hardAlpha" operator="arithmetic" k2="-1" k3="1"/>
<feColorMatrix type="matrix" values="0 0 0 0 0 0 0 0 0 0 0 0 0 0 0 0 0 0 0.4 0"/>
<feBlend mode="normal" in2="effect1_innerShadow" result="effect2_innerShadow"/>
</filter>
<filter id="filter7_i" x="165.877" y="31.5288" width="2.72911" height="2.74" filterUnits="userSpaceOnUse" color-interpolation-filters="sRGB">
<feFlood flood-opacity="0" result="BackgroundImageFix"/>
<feBlend mode="normal" in="SourceGraphic" in2="BackgroundImageFix" result="shape"/>
<feColorMatrix in="SourceAlpha" type="matrix" values="0 0 0 0 0 0 0 0 0 0 0 0 0 0 0 0 0 0 127 0" result="hardAlpha"/>
<feOffset/>
<feGaussianBlur stdDeviation="0.5"/>
<feComposite in2="hardAlpha" operator="arithmetic" k2="-1" k3="1"/>
<feColorMatrix type="matrix" values="0 0 0 0 0 0 0 0 0 0 0 0 0 0 0 0 0 0 0.4 0"/>
<feBlend mode="normal" in2="shape" result="effect1_innerShadow"/>
</filter>
<filter id="filter8_i" x="155.373" y="34.9221" width="7.51635" height="5.0593" filterUnits="userSpaceOnUse" color-interpolation-filters="sRGB">
<feFlood flood-opacity="0" result="BackgroundImageFix"/>
<feBlend mode="normal" in="SourceGraphic" in2="BackgroundImageFix" result="shape"/>
<feColorMatrix in="SourceAlpha" type="matrix" values="0 0 0 0 0 0 0 0 0 0 0 0 0 0 0 0 0 0 127 0" result="hardAlpha"/>
<feOffset/>
<feGaussianBlur stdDeviation="0.5"/>
<feComposite in2="hardAlpha" operator="arithmetic" k2="-1" k3="1"/>
<feColorMatrix type="matrix" values="0 0 0 0 0 0 0 0 0 0 0 0 0 0 0 0 0 0 0.4 0"/>
<feBlend mode="normal" in2="shape" result="effect1_innerShadow"/>
</filter>
<linearGradient id="paint0_linear" x1="248.54" y1="155.434" x2="263.633" y2="278.853" gradientUnits="userSpaceOnUse">
<stop stop-color="#E95420"/>
<stop offset="1" stop-color="#8B3583"/>
</linearGradient>
<linearGradient id="paint1_linear" x1="152.553" y1="144.274" x2="156.588" y2="247.51" gradientUnits="userSpaceOnUse">
<stop stop-color="#E95420"/>
<stop offset="1" stop-color="#8B3583"/>
</linearGradient>
<linearGradient id="paint2_linear" x1="39.0627" y1="113.632" x2="43.8664" y2="216.168" gradientUnits="userSpaceOnUse">
<stop stop-color="#E95420"/>
<stop offset="1" stop-color="#8B3583"/>
</linearGradient>
<linearGradient id="paint3_linear" x1="64.6627" y1="15.4265" x2="75.5535" y2="122.778" gradientUnits="userSpaceOnUse">
<stop stop-color="#E95420"/>
<stop offset="1" stop-color="#8B3583"/>
</linearGradient>
<linearGradient id="paint4_linear" x1="164.912" y1="26.5592" x2="177.036" y2="141.749" gradientUnits="userSpaceOnUse">
<stop stop-color="#E95420"/>
<stop offset="1" stop-color="#8B3583"/>
</linearGradient>
</defs>
</svg>
